SplineFontDB: 3.0
FontName: Besley-it-BookItalic
FullName: Besley* Book Italic
FamilyName: Besley*
Weight: Book
Copyright: Copyright (c) 2017, Owen Earl,,, (EwonRael@yahoo.com)
UComments: "2016-4-15: Created with FontForge (http://fontforge.org)"
Version: 001.000
ItalicAngle: -13
UnderlinePosition: -100
UnderlineWidth: 50
Ascent: 800
Descent: 200
InvalidEm: 0
LayerCount: 2
Layer: 0 0 "Back" 1
Layer: 1 0 "Fore" 0
XUID: [1021 31 -699969567 16487490]
FSType: 0
OS2Version: 0
OS2_WeightWidthSlopeOnly: 0
OS2_UseTypoMetrics: 1
CreationTime: 1460762150
ModificationTime: 1495818651
PfmFamily: 17
TTFWeight: 400
TTFWidth: 5
LineGap: 90
VLineGap: 0
OS2TypoAscent: 800
OS2TypoAOffset: 0
OS2TypoDescent: -200
OS2TypoDOffset: 0
OS2TypoLinegap: 90
OS2WinAscent: 1310
OS2WinAOffset: 0
OS2WinDescent: 830
OS2WinDOffset: 0
HheadAscent: 1310
HheadAOffset: 0
HheadDescent: -830
HheadDOffset: 0
OS2CapHeight: 750
OS2XHeight: 520
OS2FamilyClass: 1024
OS2Vendor: 'PfEd'
OS2UnicodeRanges: 00000001.00000000.00000000.00000000
Lookup: 5 0 0 "'calt' Contextual Alternates lookup 1" { "'calt' Contextual Alternates lookup 1-1"  } ['calt' ('DFLT' <'dflt' > 'grek' <'dflt' > 'latn' <'dflt' > ) ]
Lookup: 1 0 0 "'ss01' Style Set 1 lookup 2" { "'ss01' Style Set 1 lookup 2-1"  } ['ss01' ('DFLT' <'dflt' > 'grek' <'dflt' > 'latn' <'dflt' > ) ]
Lookup: 4 0 1 "'liga' Standard Ligatures lookup 0" { "Not your mama's contextual ligatures"  } ['liga' ('DFLT' <'dflt' > 'grek' <'dflt' > 'latn' <'dflt' > ) ]
Lookup: 258 0 0 "Kern like there's no tomorrow" { "Get it right" [150,0,5] } ['kern' ('DFLT' <'dflt' > 'grek' <'dflt' > 'latn' <'dflt' > ) ]
MarkAttachClasses: 1
DEI: 91125
KernClass2: 17 15 "Get it right"
 13 backslash A L
 3 B S
 5 D O Q
 1 E
 3 F P
 5 G g r
 7 H I M N
 3 J U
 5 K X Z
 3 T Y
 9 a h m n u
 15 b c e o p v w y
 5 d i l
 1 f
 7 k x z t
 9 slash W V
 3 A J
 23 B D E F H I K L M N P R
 7 C G O Q
 3 T Y
 1 U
 3 V W
 3 X Z
 13 a c d e o q s
 5 b l t
 19 f m n p r u y w i j
 3 h k
 1 v
 3 x z

StartChar: ampersand
Encoding: 38 38 0
Width: 870
Flags: HMW
LayerCount: 2
Back
SplineSet
702 405 m 5
 623 192 414 -10 181 -10 c 4
 48 -10 -52 57 -19 200 c 5
 95 220 l 5
 69 108 137 55 231 55 c 4
 405 55 590 243 647 405 c 5
 702 405 l 5
565 460 m 5
 805 460 l 5
 792 405 l 5
 552 405 l 5
 565 460 l 5
-19 200 m 5
 48 490 478 400 533 640 c 5
 626 635 l 5
 571 395 150 460 95 220 c 5
 -19 200 l 5
486 55 m 5
 696 55 l 5
 683 0 l 5
 473 0 l 5
 486 55 l 5
569 0 m 5
 449 0 l 5
 252 490 l 6
 236 529 226 578 234 613 c 4
 255 703 353 760 469 760 c 4
 576 760 644 715 626 635 c 5
 533 640 l 5
 544 687 514 720 459 720 c 4
 402 720 350 693 338 640 c 4
 330 605 346 555 372 490 c 6
 569 0 l 5
EndSplineSet
Fore
SplineSet
678 364 m 0
 643 364 624 388 624 426 c 0
 624 456 650 489 699 489 c 1
 721 380 l 1
 709 380 712 364 678 364 c 0
255 55 m 5
 497 55 731 281 731 359 c 0
 731 375 729 380 721 380 c 1
 699 489 l 1
 767 489 790 446 790 385 c 0
 790 245 495 -10 220 -10 c 5
 255 55 l 5
1 160 m 1
 1 480 552 420 552 660 c 1
 646 655 l 1
 646 407 111 460 111 180 c 1
 1 160 l 1
220 -10 m 5
 77 -10 1 57 1 160 c 1
 111 180 l 1
 111 108 151 55 255 55 c 5
 220 -10 l 5
422 91 m 2
 275 470 l 2
 258 512 249 548 249 583 c 0
 249 673 344 760 490 760 c 0
 577 760 646 735 646 655 c 1
 552 660 l 1
 552 697 532 720 489 720 c 0
 402 720 354 673 354 620 c 0
 354 585 366 540 393 470 c 2
 537 95 l 2
 551 54 563 32 603 32 c 0
 634 32 653 50 673 85 c 1
 710 70 l 1
 695 26 650 -30 561 -30 c 0
 488 -30 448 23 422 91 c 2
EndSplineSet
EndChar

StartChar: period
Encoding: 46 46 1
Width: 200
Flags: HMW
LayerCount: 2
Back
SplineSet
40 50 m 4
 40 83 67 110 100 110 c 4
 133 110 160 83 160 50 c 4
 160 17 133 -10 100 -10 c 4
 67 -10 40 17 40 50 c 4
EndSplineSet
Fore
SplineSet
-30 50 m 4
 -30 83 -3 110 30 110 c 4
 63 110 90 83 90 50 c 4
 90 17 63 -10 30 -10 c 4
 -3 -10 -30 17 -30 50 c 4
EndSplineSet
EndChar

StartChar: zero
Encoding: 48 48 2
Width: 530
Flags: HMW
LayerCount: 2
Back
SplineSet
145 280 m 4
 110 128 126 40 210 40 c 4
 304 40 350 128 385 280 c 4
 420 432 414 520 320 520 c 4
 236 520 180 432 145 280 c 4
35 280 m 4
 80 473 209 570 332 570 c 4
 465 570 540 473 495 280 c 4
 450 87 311 -10 198 -10 c 4
 75 -10 -10 87 35 280 c 4
EndSplineSet
Fore
SplineSet
130 190 m 4
 130 98 151 40 205 40 c 4
 309 40 400 198 400 370 c 4
 400 472 379 520 325 520 c 4
 211 520 130 362 130 190 c 4
25 190 m 4
 25 393 162 570 335 570 c 4
 428 570 505 523 505 370 c 4
 505 157 348 -10 195 -10 c 4
 112 -10 25 47 25 190 c 4
EndSplineSet
EndChar

StartChar: one
Encoding: 49 49 3
Width: 530
VWidth: 1155
Flags: HMW
LayerCount: 2
Back
SplineSet
111 465 m 21
 227 465 265 468 343 590 c 13
 314 465 l 5
 111 465 l 21
314 465 m 5
 343 590 l 5
 388 590 l 5
 359 465 l 5
 314 465 l 5
111 465 m 5
 359 465 l 5
 347 410 l 5
 99 410 l 5
 111 465 l 5
-0 55 m 5
 170 55 l 5
 157 0 l 5
 -13 0 l 5
 -0 55 l 5
265 55 m 5
 425 55 l 5
 412 0 l 5
 252 0 l 5
 265 55 l 5
254 420 m 5
 349 420 l 5
 252 0 l 5
 157 0 l 5
 254 420 l 5
EndSplineSet
Fore
SplineSet
152 465 m 21
 218 465 275 468 355 590 c 13
 355 465 l 5
 152 465 l 21
325 465 m 5
 355 590 l 5
 400 590 l 5
 370 465 l 5
 325 465 l 5
112 465 m 5
 350 465 l 5
 350 410 l 5
 112 410 l 5
 112 465 l 5
5 55 m 5
 205 55 l 5
 205 0 l 5
 5 0 l 5
 5 55 l 5
250 55 m 5
 430 55 l 5
 430 0 l 5
 250 0 l 5
 250 55 l 5
274 450 m 5
 400 590 l 5
 260 0 l 5
 165 0 l 5
 274 450 l 5
EndSplineSet
EndChar

StartChar: two
Encoding: 50 50 4
Width: 530
VWidth: 1155
Flags: HMW
LayerCount: 2
Back
SplineSet
474 157 m 5
 441 12 380 -30 291 -30 c 4
 184 -30 173 30 90 30 c 4
 49 30 29 10 12 -20 c 5
 -17 -20 l 5
 20 54 57 97 140 97 c 4
 240 97 242 63 318 63 c 4
 381 63 413 95 427 157 c 5
 474 157 l 5
182 472 m 5
 177 449 207 444 199 408 c 4
 190 371 155 350 128 350 c 4
 99 350 69 368 80 416 c 5
 182 472 l 5
80 416 m 5
 99 498 209 570 331 570 c 4
 452 570 545 520 520 410 c 5
 412 420 l 5
 429 494 401 528 322 528 c 4
 248 528 188 499 182 472 c 5
 80 416 l 5
242 269 m 4
 355 313 397 356 412 420 c 5
 520 410 l 5
 502 330 418 259 243 210 c 4
 129 178 30 80 7 -20 c 5
 -37 -20 l 5
 -3 127 112 219 242 269 c 4
EndSplineSet
Fore
SplineSet
467 157 m 5
 437 22 379 -30 280 -30 c 4
 173 -30 148 30 85 30 c 4
 44 30 19 10 9 -20 c 5
 -20 -20 l 5
 0 54 66 98 149 98 c 4
 229 98 240 63 306 63 c 4
 369 63 403 105 413 157 c 5
 467 157 l 5
167 467 m 5
 167 444 194 444 194 408 c 4
 194 371 164 350 137 350 c 4
 108 350 73 368 73 416 c 5
 167 467 l 5
73 416 m 5
 73 498 200 570 312 570 c 4
 423 570 513 530 513 430 c 5
 402 440 l 5
 402 504 363 523 304 523 c 4
 230 523 167 494 167 467 c 5
 73 416 l 5
232 269 m 4
 334.8359375 312.935546875 402 376 402 440 c 5
 513 430 l 5
 513 320 410.857421875 254.379882812 247 205 c 4
 140.1171875 172.790039062 4 80 4 -20 c 5
 -48 -20 l 5
 -17 137 114.060546875 218.611328125 232 269 c 4
EndSplineSet
EndChar

StartChar: three
Encoding: 51 51 5
Width: 530
VWidth: 1155
Flags: HMW
LayerCount: 2
Back
SplineSet
457 40 m 5
 356 40 l 5
 373 114 367 211 198 211 c 5
 206 245 l 5
 447 245 482 150 457 40 c 5
108 412 m 5
 127 494 208 570 350 570 c 4
 451 570 548 521 520 401 c 5
 419 401 l 5
 436 475 410 528 321 528 c 4
 257 528 216 495 210 468 c 5
 108 412 l 5
210 468 m 5
 205 445 235 440 227 404 c 4
 218 367 184 346 157 346 c 4
 128 346 97 364 108 412 c 5
 210 468 l 5
-18 -1 m 5
 59 -57 l 5
 53 -84 87 -118 171 -118 c 4
 280 -118 339 -34 356 40 c 5
 457 40 l 5
 432 -70 323 -160 172 -160 c 4
 20 -160 -37 -83 -18 -1 c 5
59 -57 m 5
 -18 -1 l 5
 -7 47 33 65 62 65 c 4
 89 65 114 44 105 7 c 4
 97 -29 64 -34 59 -57 c 5
202 226 m 5
 210 260 l 5
 379 260 404 337 419 401 c 5
 520 401 l 5
 497 301 443 226 202 226 c 5
EndSplineSet
Fore
SplineSet
435 90 m 1
 334 90 l 1
 334 174 281 211 172 211 c 1
 172 245 l 1
 353 245 435 200 435 90 c 1
70 412 m 1
 70 494 174 570 316 570 c 0
 407 570 495 531 495 431 c 1
 394 431 l 1
 394 495 365 524 296 524 c 0
 232 524 159 493 159 466 c 1
 70 412 l 1
159 466 m 5
 159 443 191 440 191 404 c 4
 191 367 161 346 134 346 c 4
 105 346 70 364 70 412 c 5
 159 466 l 5
-50 -21 m 1
 34 -62 l 1
 34 -89 62 -114 136 -114 c 0
 265 -114 334 -14 334 90 c 1
 435 90 l 1
 435 -50 317 -160 136 -160 c 0
 4 -160 -50 -93 -50 -21 c 1
34 -62 m 1
 -50 -21 l 1
 -50 27 -12 65 27 65 c 0
 61 65 81 47 81 17 c 0
 81 -44 34 -32 34 -62 c 1
172 226 m 1
 172 260 l 1
 341 260 394 347 394 431 c 1
 495 431 l 1
 495 311 413 226 172 226 c 1
EndSplineSet
EndChar

StartChar: four
Encoding: 52 52 6
Width: 530
VWidth: 1155
Flags: HMW
LayerCount: 2
Back
SplineSet
337 259 m 5
 432 259 l 5
 338 -150 l 5
 243 -150 l 5
 337 259 l 5
70 105 m 5
 12 105 l 5
 107 255 355 420 387 560 c 5
 465 560 l 5
 423 380 165 255 70 105 c 5
50 120 m 5
 490 120 l 5
 478 65 l 5
 38 65 l 5
 50 120 l 5
12 105 m 5
 47 105 l 5
 38 65 l 5
 3 65 l 5
 12 105 l 5
256 -95 m 5
 243 -150 l 5
 148 -150 l 5
 161 -95 l 5
 256 -95 l 5
426 -95 m 5
 413 -150 l 5
 338 -150 l 5
 351 -95 l 5
 426 -95 l 5
407 259 m 5
 433 370 l 5
 458 370 l 5
 432 259 l 5
 407 259 l 5
337 259 m 5
 377 280 398 306 433 370 c 13
 407 259 l 5
 337 259 l 5
EndSplineSet
Fore
SplineSet
315 259 m 5
 364.462890625 263.1875 398.026367188 328.395507812 438 369 c 5
 320 -150 l 5
 225 -150 l 5
 315 259 l 5
48 105 m 5
 -10 105 l 5
 50 255 365 420 365 560 c 5
 443 560 l 5
 443 380 98 235 48 105 c 5
25 120 m 5
 465 120 l 5
 465 65 l 5
 25 65 l 5
 25 120 l 5
-10 105 m 5
 25 105 l 5
 25 65 l 5
 -10 65 l 5
 -10 105 l 5
245 -95 m 5
 245 -150 l 5
 140 -150 l 5
 140 -95 l 5
 245 -95 l 5
405 -95 m 5
 405 -150 l 5
 320 -150 l 5
 320 -95 l 5
 405 -95 l 5
385 259 m 5
 413 369 l 5
 438 369 l 5
 410 259 l 5
 385 259 l 5
315 259 m 5
 350 280 393 305 413 369 c 13
 385 259 l 5
 315 259 l 5
EndSplineSet
EndChar

StartChar: five
Encoding: 53 53 7
Width: 530
VWidth: 1155
Flags: HMW
LayerCount: 2
Back
SplineSet
234 565 m 5
 107 197 l 5
 57 197 l 5
 184 565 l 5
 234 565 l 5
463 80 m 5
 357 60 l 5
 388 194 345 261 256 261 c 4
 193 261 158 247 111 197 c 5
 57 197 l 5
 116 274 168 310 279 310 c 4
 440 310 495 220 463 80 c 5
-13 -11 m 5
 63 -67 l 5
 57 -94 94 -118 148 -118 c 4
 247 -118 333 -44 357 60 c 5
 463 80 l 5
 428 -70 290 -160 149 -160 c 4
 27 -160 -32 -93 -13 -11 c 5
63 -67 m 5
 -13 -11 l 5
 -2 37 37 55 66 55 c 4
 93 55 119 34 110 -3 c 4
 102 -39 68 -44 63 -67 c 5
163 475 m 5
 184 565 l 5
 327 565 l 6
 451 565 458 546 507 597 c 5
 552 597 l 5
 538 565 l 6
 501 483 481 475 244 475 c 6
 163 475 l 5
EndSplineSet
Fore
SplineSet
234 565 m 1
 112 197 l 1
 62 197 l 1
 184 565 l 1
 234 565 l 1
475 130 m 1
 374 110 l 1
 374 204 355 261 286 261 c 0
 223 261 171 247 116 197 c 1
 62 197 l 1
 123 274 197 310 298 310 c 0
 419 310 475 230 475 130 c 1
-10 -21 m 1
 79 -67 l 1
 79 -94 102 -118 156 -118 c 0
 275 -118 374 -24 374 110 c 1
 475 130 l 1
 475 -50 337 -160 156 -160 c 4
 54 -160 -10 -113 -10 -21 c 1
79 -67 m 1
 -10 -21 l 1
 -10 35 25 55 54 55 c 0
 81 55 111 34 111 -3 c 0
 111 -39 79 -44 79 -67 c 1
184 475 m 1
 184 565 l 1
 327 565 l 2
 451 565 463 546 500 597 c 1
 550 597 l 1
 537 565 l 2
 505.927844883 488.514695096 502 475 265 475 c 2
 184 475 l 1
EndSplineSet
EndChar

StartChar: six
Encoding: 54 54 8
Width: 530
VWidth: 1155
Flags: HMW
LayerCount: 2
Back
SplineSet
29 350 m 5
 129 350 l 5
 108 260 l 5
 33 240 l 5
 29 350 l 5
471 230 m 5
 371 230 l 5
 397 344 366 411 287 411 c 4
 204 411 126 340 108 260 c 5
 74 260 l 5
 99 367 189 460 320 460 c 4
 431 460 506 380 471 230 c 5
421 651 m 5
 507 601 l 5
 496 553 457 535 428 535 c 4
 401 535 375 556 384 593 c 4
 392 629 418 638 421 651 c 5
507 601 m 5
 421 651 l 5
 424 664 413 678 374 678 c 4
 245 678 167 514 129 350 c 5
 29 350 l 5
 75 550 217 720 378 720 c 4
 460 720 526 683 507 601 c 5
471 230 m 5
 443 110 326 -10 185 -10 c 4
 24 -10 -26 110 29 350 c 5
 108 260 l 5
 84 156 106 35 205 35 c 4
 294 35 352 146 371 230 c 5
 471 230 l 5
EndSplineSet
Fore
SplineSet
413 651 m 1
 510 611 l 1
 510 563 475 535 446 535 c 0
 419 535 389 556 389 593 c 0
 389 629 413 638 413 651 c 1
480 290 m 1
 380 290 l 1
 380 364 363 411 314 411 c 0
 211 411 100 300 100 220 c 1
 66 210 l 1
 66 317 175 460 326 460 c 0
 407 460 480 420 480 290 c 1
480 290 m 1
 480 150 350 -10 189 -10 c 0
 68 -10 10 70 10 220 c 0
 10 470 183 720 364 720 c 0
 446 720 510 693 510 611 c 1
 413 651 l 1
 413 664 408 678 369 678 c 0
 240 678 100 434 100 220 c 0
 100 128.818359375 121.305664062 40 189 40 c 4
 308 40 380 186 380 290 c 1
 480 290 l 1
EndSplineSet
EndChar

StartChar: seven
Encoding: 55 55 9
Width: 540
VWidth: 1155
Flags: HMW
LayerCount: 2
Back
SplineSet
77 393 m 5
 110 538 171 580 260 580 c 4
 357 580 379 520 462 520 c 4
 503 520 522 540 539 570 c 5
 568 570 l 5
 531 496 494 453 411 453 c 4
 311 453 309 487 233 487 c 4
 170 487 138 455 124 393 c 5
 77 393 l 5
240 42 m 5
 223 -31 253 -46 242 -92 c 4
 233 -129 207 -160 163 -160 c 4
 124 -160 105 -123 121 -54 c 5
 240 42 l 5
335 218 m 4
 267 124 250 86 240 42 c 5
 121 -54 l 5
 142 35 189 127 279 231 c 4
 386 354 527 520 539 570 c 5
 592 570 l 5
 577 503 435 357 335 218 c 4
EndSplineSet
Fore
SplineSet
39 393 m 5
 69 528 127 580 226 580 c 4
 333 580 358 520 421 520 c 4
 462 520 487 540 497 570 c 5
 526 570 l 5
 506 496 440 452 357 452 c 4
 277 452 266 487 200 487 c 4
 137 487 103 445 93 393 c 5
 39 393 l 5
193 32 m 5
 193 -41 216 -46 216 -92 c 4
 216 -129 196 -160 152 -160 c 4
 113 -160 81 -133 81 -64 c 5
 193 32 l 5
294 218 m 4
 223.594726562 132.715820312 193 76 193 32 c 5
 81 -64 l 5
 81 25 153.556640625 138.651367188 235 231 c 4
 343.5 354.02734375 497 520 497 570 c 5
 550 570 l 5
 550 503 402.39453125 349.302734375 294 218 c 4
EndSplineSet
EndChar

StartChar: eight
Encoding: 56 56 10
Width: 530
VWidth: 1155
Flags: HMW
LayerCount: 2
Back
SplineSet
200 530 m 4
 183 456 203 385 272 385 c 4
 341 385 393 456 410 530 c 4
 427 604 408 675 339 675 c 4
 270 675 217 604 200 530 c 4
100 530 m 4
 125 640 228 720 349 720 c 4
 470 720 535 640 510 530 c 4
 485 420 386 355 265 355 c 4
 144 355 75 420 100 530 c 4
102 190 m 4
 83 106 102 35 191 35 c 4
 280 35 333 106 352 190 c 4
 371 274 352 345 263 345 c 4
 174 345 121 274 102 190 c 4
2 190 m 4
 30 310 129 375 270 375 c 4
 411 375 480 310 452 190 c 4
 424 70 322 -10 181 -10 c 4
 40 -10 -26 70 2 190 c 4
EndSplineSet
Fore
SplineSet
205 490 m 4
 205 416 236 385 285 385 c 4
 374 385 425 496 425 570 c 4
 425 644 394 675 345 675 c 4
 256 675 205 564 205 490 c 4
105 490 m 4
 105 600 204 720 345 720 c 4
 446 720 525 680 525 570 c 4
 525 460 426 355 285 355 c 4
 184 355 105 380 105 490 c 4
110 140 m 4
 110 86 126 35 195 35 c 4
 304 35 370 126 370 240 c 4
 370 294 344 345 285 345 c 4
 166 345 110 254 110 140 c 4
10 140 m 4
 10 280 114 375 285 375 c 4
 396 375 470 340 470 240 c 4
 470 100 356 -10 195 -10 c 4
 74 -10 10 40 10 140 c 4
EndSplineSet
EndChar

StartChar: A
Encoding: 65 65 12
Width: 900
Flags: HMW
LayerCount: 2
Back
SplineSet
205.181640625 275 m 5
 665.181640625 275 l 5
 652.484375 220 l 5
 192.484375 220 l 5
 205.181640625 275 l 5
484.390625 55 m 5
 814.390625 55 l 5
 801.693359375 0 l 5
 471.693359375 0 l 5
 484.390625 55 l 5
-45.609375 55 m 5
 234.390625 55 l 5
 221.693359375 0 l 5
 -58.306640625 0 l 5
 -45.609375 55 l 5
499.455078125 705 m 5
 583.306640625 765 l 5
 711.693359375 0 l 5
 601.693359375 0 l 5
 499.455078125 705 l 5
524.306640625 765 m 5
 583.306640625 765 l 5
 80.693359375 0 l 5
 16.693359375 0 l 5
 524.306640625 765 l 5
EndSplineSet
Fore
SplineSet
210 275 m 1
 661 275 l 1
 670 220 l 1
 210 220 l 1
 210 275 l 1
490 55 m 1
 810 55 l 1
 810 0 l 1
 490 0 l 1
 490 55 l 1
-50 55 m 1
 230 55 l 1
 230 0 l 1
 -50 0 l 1
 -50 55 l 1
497 695 m 1
 575 765 l 1
 720 0 l 1
 612 0 l 1
 497 695 l 1
505 765 m 1
 575 765 l 1
 100 0 l 1
 25 0 l 1
 505 765 l 1
EndSplineSet
EndChar

StartChar: B
Encoding: 66 66 13
Width: 742
Flags: HMW
LayerCount: 2
Back
SplineSet
441.234375 415 m 5
 517.234375 415 600.700195312 456 623.556640625 555 c 4
 646.412109375 654 581.877929688 695 505.877929688 695 c 5
 518.575195312 750 l 5
 669.575195312 750 753.569335938 685 723.556640625 555 c 4
 693.54296875 425 594.154296875 380 433.154296875 380 c 5
 441.234375 415 l 5
238.575195312 750 m 5
 333.575195312 750 l 5
 160.424804688 0 l 5
 65.4248046875 0 l 5
 238.575195312 750 l 5
128.575195312 750 m 5
 238.575195312 750 l 5
 225.877929688 695 l 5
 115.877929688 695 l 5
 128.575195312 750 l 5
-31.8779296875 55 m 5
 78.1220703125 55 l 5
 65.4248046875 0 l 5
 -44.5751953125 0 l 5
 -31.8779296875 55 l 5
251.234375 415 m 5
 461.234375 415 l 5
 448.537109375 360 l 5
 238.537109375 360 l 5
 251.234375 415 l 5
328.575195312 750 m 5
 518.575195312 750 l 5
 505.877929688 695 l 5
 315.877929688 695 l 5
 328.575195312 750 l 5
168.122070312 55 m 5
 368.122070312 55 l 5
 365.424804688 0 l 5
 155.424804688 0 l 5
 168.122070312 55 l 5
368.122070312 55 m 5
 454.122070312 55 541.05078125 111 563.907226562 210 c 4
 586.762695312 309 524.537109375 360 438.537109375 360 c 5
 456.6171875 395 l 5
 617.6171875 395 703.919921875 340 673.907226562 210 c 4
 639.276367188 60 526.424804688 0 365.424804688 0 c 5
 368.122070312 55 l 5
EndSplineSet
Fore
SplineSet
98 750 m 1
 233 750 l 1
 233 695 l 1
 98 695 l 1
 98 750 l 1
-40 55 m 1
 85 55 l 1
 85 0 l 1
 -40 0 l 1
 -40 55 l 1
432 415 m 1
 508 415 622 466 622 575 c 0
 622 644 588 695 512 695 c 1
 512 750 l 1
 663 750 722 655 722 575 c 0
 722 435 613 380 432 380 c 1
 432 415 l 1
232 750 m 1
 332 750 l 5
 172 0 l 5
 72 0 l 1
 232 750 l 1
237 415 m 1
 452 415 l 1
 452 360 l 1
 237 360 l 1
 237 415 l 1
312 750 m 1
 512 750 l 1
 512 695 l 1
 312 695 l 1
 312 750 l 1
157 55 m 1
 362 55 l 1
 372 0 l 1
 157 0 l 1
 157 55 l 1
362 55 m 1
 528 55 572 161 572 230 c 0
 572 309 528 360 442 360 c 1
 452 395 l 1
 613 395 682 340 682 230 c 0
 682 110 613 0 372 0 c 1
 362 55 l 1
EndSplineSet
EndChar

StartChar: C
Encoding: 67 67 14
Width: 797
Flags: HMW
LayerCount: 2
Back
SplineSet
484.575195312 760 m 1
 677.575195312 760 784.575195312 643 784.575195312 450 c 0
 784.575195312 217 587.575195312 -10 344.575195312 -10 c 1
 344.575195312 40 l 1
 538.575195312 40 669.575195312 273 669.575195312 445 c 0
 669.575195312 597 628.575195312 710 484.575195312 710 c 1
 484.575195312 760 l 1
344.575195312 -10 m 1
 151.575195312 -10 44.5751953125 107 44.5751953125 300 c 0
 44.5751953125 533 241.575195312 760 484.575195312 760 c 1
 484.575195312 710 l 1
 290.575195312 710 159.575195312 477 159.575195312 305 c 0
 159.575195312 153 200.575195312 40 344.575195312 40 c 1
 344.575195312 -10 l 1
1496.13769531 620 m 17
 1567.3046875 755 l 9
 1519.97753906 550 l 1
 1496.13769531 620 l 17
1507.27929688 495 m 1
 1567.3046875 755 l 1
 1612.3046875 755 l 1
 1552.27929688 495 l 1
 1507.27929688 495 l 1
1542.27929688 495 m 1
 1497.27929688 495 l 1
 1510.828125 597 1439.06933594 702 1295.06933594 702 c 0
 1121.06933594 702 991.592773438 557 949.575195312 375 c 1
 834.575195312 375 l 1
 886.05859375 598 1100.45898438 760 1303.45898438 760 c 0
 1496.45898438 760 1566.05859375 598 1542.27929688 495 c 1
1516.10546875 295 m 1
 1466.16601562 122 1313.69140625 -10 1110.69140625 -10 c 0
 897.69140625 -10 783.091796875 152 834.575195312 375 c 1
 949.575195312 375 l 1
 907.557617188 193 960.3125 49 1134.3125 49 c 0
 1298.3125 49 1422.93945312 173 1461.10546875 295 c 1
 1516.10546875 295 l 1
EndSplineSet
Fore
SplineSet
697 620 m 17
 772 750 l 9
 740 570 l 1
 697 620 l 17
718 495 m 1
 772 750 l 1
 827 750 l 1
 773 495 l 1
 718 495 l 1
765 555 m 1
 718 495 l 1
 738 613 636 699 493 699 c 0
 282 699 160 480 160 305 c 1
 45 305 l 1
 45 516 227 760 485 760 c 0
 674 760 745 658 765 555 c 1
725 275 m 1
 682 142 558 -10 345 -10 c 0
 172 -10 45 95 45 305 c 1
 160 305 l 1
 160 143 229 53 363 53 c 0
 509 53 614 163 657 275 c 1
 725 275 l 1
EndSplineSet
EndChar

StartChar: D
Encoding: 68 68 15
Width: 818
Flags: HMW
LayerCount: 2
Back
SplineSet
-40.8779296875 55 m 5
 69.1220703125 55 l 5
 56.4248046875 0 l 5
 -53.5751953125 0 l 5
 -40.8779296875 55 l 5
119.575195312 750 m 5
 229.575195312 750 l 5
 216.877929688 695 l 5
 106.877929688 695 l 5
 119.575195312 750 l 5
229.575195312 750 m 5
 324.575195312 750 l 5
 151.424804688 0 l 5
 56.4248046875 0 l 5
 229.575195312 750 l 5
316.424804688 0 m 6
 151.424804688 0 l 5
 164.122070312 55 l 5
 329.122070312 55 l 6
 513.122070312 55 605.982421875 193 648 375 c 4
 690.017578125 557 650.877929688 695 476.877929688 695 c 6
 311.877929688 695 l 5
 324.575195312 750 l 5
 489.575195312 750 l 6
 712.575195312 750 812.174804688 588 763 375 c 4
 713.825195312 162 529.424804688 0 316.424804688 0 c 6
EndSplineSet
Fore
SplineSet
97 750 m 1
 232 750 l 1
 232 695 l 1
 97 695 l 1
 97 750 l 1
-40 55 m 1
 85 55 l 1
 85 0 l 1
 -40 0 l 1
 -40 55 l 1
223 750 m 1
 323 750 l 5
 163 0 l 5
 63 0 l 1
 223 750 l 1
323 0 m 2
 158 0 l 1
 158 55 l 1
 323 55 l 2
 507 55 658 243 658 485 c 0
 658 597 637 695 473 695 c 2
 298 695 l 1
 298 750 l 1
 473 750 l 2
 706 750 773 598 773 465 c 0
 773 192 546 0 323 0 c 2
EndSplineSet
EndChar

StartChar: E
Encoding: 69 69 16
Width: 729
Flags: HMW
LayerCount: 2
Back
SplineSet
340.618164062 408 m 21
 427.618164062 408 471.700195312 456 487.168945312 523 c 13
 460.618164062 408 l 5
 340.618164062 408 l 21
423.6796875 248 m 21
 439.147460938 315 418.383789062 368 331.383789062 368 c 13
 451.383789062 368 l 5
 423.6796875 248 l 21
404.122070312 55 m 21
 541.122070312 55 584.049804688 98 620.295898438 255 c 13
 574.122070312 55 l 5
 404.122070312 55 l 21
423.6796875 248 m 5
 451.383789062 368 l 5
 496.383789062 368 l 5
 468.6796875 248 l 5
 423.6796875 248 l 5
460.618164062 408 m 5
 487.168945312 523 l 5
 532.168945312 523 l 5
 505.618164062 408 l 5
 460.618164062 408 l 5
574.122070312 55 m 5
 620.295898438 255 l 5
 670.295898438 255 l 5
 624.122070312 55 l 5
 574.122070312 55 l 5
670.321289062 515 m 5
 711.877929688 695 l 5
 761.877929688 695 l 5
 720.321289062 515 l 5
 670.321289062 515 l 5
174.122070312 55 m 5
 624.122070312 55 l 5
 611.424804688 0 l 5
 161.424804688 0 l 5
 174.122070312 55 l 5
334.575195312 750 m 5
 774.575195312 750 l 5
 761.877929688 695 l 5
 321.877929688 695 l 5
 334.575195312 750 l 5
255.618164062 408 m 5
 505.618164062 408 l 5
 496.383789062 368 l 5
 246.383789062 368 l 5
 255.618164062 408 l 5
-30.8779296875 55 m 5
 79.1220703125 55 l 5
 66.4248046875 0 l 5
 -43.5751953125 0 l 5
 -30.8779296875 55 l 5
129.575195312 750 m 5
 239.575195312 750 l 5
 226.877929688 695 l 5
 116.877929688 695 l 5
 129.575195312 750 l 5
239.575195312 750 m 5
 334.575195312 750 l 5
 161.424804688 0 l 5
 66.4248046875 0 l 5
 239.575195312 750 l 5
670.321289062 515 m 21
 701.950195312 652 678.877929688 695 561.877929688 695 c 13
 711.877929688 695 l 5
 670.321289062 515 l 21
EndSplineSet
Fore
SplineSet
-40 55 m 1
 85 55 l 1
 85 0 l 1
 -40 0 l 1
 -40 55 l 1
104 750 m 1
 239 750 l 1
 239 695 l 1
 104 695 l 1
 104 750 l 1
333 408 m 17
 420 408 468 456 488 523 c 9
 463 408 l 1
 333 408 l 17
423 248 m 17
 438 315 420 368 333 368 c 9
 453 368 l 1
 423 248 l 17
398 55 m 17
 535 55 588 98 628 255 c 9
 582 55 l 1
 398 55 l 17
423 248 m 1
 488 523 l 1
 533 523 l 1
 468 248 l 1
 423 248 l 1
568 0 m 1
 628 255 l 1
 678 255 l 1
 618 0 l 1
 568 0 l 1
665 515 m 1
 719 750 l 1
 769 750 l 1
 715 515 l 1
 665 515 l 1
163 55 m 1
 582 55 l 1
 568 0 l 1
 163 0 l 1
 163 55 l 1
320 750 m 1
 719 750 l 1
 707 695 l 1
 320 695 l 1
 320 750 l 1
238 408 m 1
 468 408 l 1
 458 368 l 1
 238 368 l 1
 238 408 l 1
238 750 m 1
 338 750 l 5
 168 0 l 5
 68 0 l 1
 238 750 l 1
665 515 m 17
 695 652 672 695 555 695 c 9
 707 695 l 1
 665 515 l 17
EndSplineSet
EndChar

StartChar: F
Encoding: 70 70 17
Width: 719
Flags: HMW
LayerCount: 2
Back
SplineSet
174.122070312 55 m 5
 294.122070312 55 l 5
 281.424804688 0 l 5
 161.424804688 0 l 5
 174.122070312 55 l 5
348.309570312 398 m 21
 435.309570312 398 477.083007812 436 492.55078125 503 c 13
 468.309570312 398 l 5
 348.309570312 398 l 21
431.37109375 238 m 21
 446.838867188 305 423.766601562 348 336.766601562 348 c 13
 456.766601562 348 l 5
 431.37109375 238 l 21
431.37109375 238 m 5
 456.766601562 348 l 5
 501.766601562 348 l 5
 476.37109375 238 l 5
 431.37109375 238 l 5
468.309570312 398 m 5
 492.55078125 503 l 5
 537.55078125 503 l 5
 513.309570312 398 l 5
 468.309570312 398 l 5
660.321289062 515 m 5
 701.877929688 695 l 5
 751.877929688 695 l 5
 710.321289062 515 l 5
 660.321289062 515 l 5
334.575195312 750 m 5
 764.575195312 750 l 5
 751.877929688 695 l 5
 321.877929688 695 l 5
 334.575195312 750 l 5
253.309570312 398 m 5
 513.309570312 398 l 5
 501.766601562 348 l 5
 241.766601562 348 l 5
 253.309570312 398 l 5
-30.8779296875 55 m 5
 79.1220703125 55 l 5
 66.4248046875 0 l 5
 -43.5751953125 0 l 5
 -30.8779296875 55 l 5
129.575195312 750 m 5
 239.575195312 750 l 5
 226.877929688 695 l 5
 116.877929688 695 l 5
 129.575195312 750 l 5
239.575195312 750 m 5
 334.575195312 750 l 5
 161.424804688 0 l 5
 66.4248046875 0 l 5
 239.575195312 750 l 5
660.321289062 515 m 21
 691.950195312 652 668.877929688 695 551.877929688 695 c 13
 701.877929688 695 l 5
 660.321289062 515 l 21
EndSplineSet
Fore
SplineSet
162 55 m 1
 297 55 l 1
 297 0 l 1
 162 0 l 1
 162 55 l 1
-40 55 m 1
 85 55 l 1
 85 0 l 1
 -40 0 l 1
 -40 55 l 1
104 750 m 1
 239 750 l 1
 239 695 l 1
 104 695 l 1
 104 750 l 1
333 398 m 17
 420 398 468 446 488 513 c 9
 463 398 l 1
 333 398 l 17
423 228 m 17
 438 295 420 348 333 348 c 9
 453 348 l 1
 423 228 l 17
423 228 m 1
 488 513 l 1
 533 513 l 1
 468 228 l 1
 423 228 l 1
665 515 m 1
 719 750 l 1
 769 750 l 1
 715 515 l 1
 665 515 l 1
320 750 m 1
 719 750 l 1
 707 695 l 1
 320 695 l 1
 320 750 l 1
238 398 m 1
 468 398 l 1
 458 348 l 1
 238 348 l 1
 238 398 l 1
238 750 m 1
 338 750 l 5
 168 0 l 5
 68 0 l 1
 238 750 l 1
665 515 m 17
 695 652 672 695 555 695 c 9
 707 695 l 1
 665 515 l 17
248 398 m 1
 488 398 l 1
 488 348 l 1
 248 348 l 1
 248 398 l 1
EndSplineSet
EndChar

StartChar: G
Encoding: 71 71 18
Width: 867
Flags: HMW
LayerCount: 2
Back
SplineSet
716.5625 620 m 21
 786.575195312 750 l 13
 740.40234375 550 l 5
 716.5625 620 l 21
727.704101562 495 m 5
 786.575195312 750 l 5
 831.575195312 750 l 5
 772.704101562 495 l 5
 727.704101562 495 l 5
762.704101562 495 m 1
 717.704101562 495 l 1
 731.252929688 597 701.956054688 704 517.956054688 704 c 0
 353.956054688 704 212.017578125 557 170 375 c 1
 55 375 l 1
 106.483398438 598 320.883789062 760 523.883789062 760 c 0
 716.883789062 760 793.409179688 628 762.704101562 495 c 1
718.061523438 215 m 1
 686.590820312 122 554.116210938 -10 331.116210938 -10 c 0
 123.116210938 -10 3.5166015625 152 55 375 c 1
 170 375 l 1
 127.982421875 193 179.813476562 45 348.813476562 45 c 0
 482.813476562 45 571.821289062 123 606.134765625 185 c 1
 718.061523438 215 l 1
634.993164062 310 m 1
 738.838867188 305 l 1
 718.061523438 215 l 1
 606.134765625 185 l 1
 634.993164062 310 l 1
523.845703125 370 m 1
 853.845703125 370 l 1
 838.838867188 305 l 1
 508.838867188 305 l 1
 523.845703125 370 l 1
EndSplineSet
Fore
SplineSet
696.5625 620 m 17
 771.575195312 750 l 9
 740.40234375 570 l 1
 696.5625 620 l 17
717.704101562 495 m 1
 771.575195312 750 l 1
 826.575195312 750 l 1
 772.704101562 495 l 1
 717.704101562 495 l 1
765 555 m 1
 717.704101562 495 l 1
 737.704101562 613 636 699 493 699 c 0
 282 699 160 480 160 305 c 1
 45 305 l 1
 45 516 227 760 485 760 c 0
 674 760 745 658 765 555 c 1
697 175 m 1
 657 102 537 -10 354 -10 c 0
 176 -10 45 92 45 305 c 1
 160 305 l 1
 160 153 226 47 355 47 c 0
 459 47 523 83 584 145 c 1
 697 175 l 1
632 312 m 1
 735 307 l 1
 697 175 l 1
 584 145 l 1
 632 312 l 1
517 370 m 1
 847 370 l 1
 847 305 l 1
 517 305 l 1
 517 370 l 1
EndSplineSet
EndChar

StartChar: H
Encoding: 72 72 19
Width: 897
Flags: HMW
LayerCount: 2
Back
SplineSet
257.234375 415 m 5
 657.234375 415 l 5
 644.537109375 360 l 5
 244.537109375 360 l 5
 257.234375 415 l 5
454.122070312 55 m 1
 574.122070312 55 l 1
 561.424804688 0 l 1
 441.424804688 0 l 1
 454.122070312 55 l 1
669.122070312 55 m 1
 779.122070312 55 l 1
 766.424804688 0 l 1
 656.424804688 0 l 1
 669.122070312 55 l 1
-30.8779296875 55 m 1
 79.1220703125 55 l 1
 66.4248046875 0 l 1
 -43.5751953125 0 l 1
 -30.8779296875 55 l 1
174.122070312 55 m 1
 294.122070312 55 l 1
 281.424804688 0 l 1
 161.424804688 0 l 1
 174.122070312 55 l 1
614.575195312 750 m 1
 734.575195312 750 l 1
 721.877929688 695 l 1
 601.877929688 695 l 1
 614.575195312 750 l 1
829.575195312 750 m 1
 939.575195312 750 l 1
 926.877929688 695 l 1
 816.877929688 695 l 1
 829.575195312 750 l 1
129.575195312 750 m 1
 239.575195312 750 l 1
 226.877929688 695 l 1
 116.877929688 695 l 1
 129.575195312 750 l 1
334.575195312 750 m 1
 454.575195312 750 l 1
 441.877929688 695 l 1
 321.877929688 695 l 1
 334.575195312 750 l 1
734.575195312 750 m 1
 829.575195312 750 l 1
 656.424804688 0 l 1
 561.424804688 0 l 1
 734.575195312 750 l 1
239.575195312 750 m 1
 334.575195312 750 l 1
 161.424804688 0 l 1
 66.4248046875 0 l 1
 239.575195312 750 l 1
EndSplineSet
Fore
SplineSet
227 415 m 1
 676 415 l 1
 676 360 l 1
 227 360 l 1
 227 415 l 1
597 750 m 1
 732 750 l 1
 732 695 l 1
 597 695 l 1
 597 750 l 1
812 750 m 1
 937 750 l 1
 937 695 l 1
 812 695 l 1
 812 750 l 1
566 0 m 5
 726 750 l 5
 826 750 l 1
 666 0 l 1
 566 0 l 5
460 55 m 1
 585 55 l 1
 585 0 l 1
 460 0 l 1
 460 55 l 1
665 55 m 1
 800 55 l 1
 800 0 l 1
 665 0 l 1
 665 55 l 1
97 750 m 1
 232 750 l 1
 232 695 l 1
 97 695 l 1
 97 750 l 1
312 750 m 1
 437 750 l 1
 437 695 l 1
 312 695 l 1
 312 750 l 1
71 0 m 1
 231 750 l 1
 331 750 l 1
 171 0 l 1
 71 0 l 1
-40 55 m 1
 85 55 l 1
 85 0 l 1
 -40 0 l 1
 -40 55 l 1
165 55 m 1
 300 55 l 1
 300 0 l 1
 165 0 l 1
 165 55 l 1
EndSplineSet
EndChar

StartChar: I
Encoding: 73 73 20
Width: 398
Flags: HMW
LayerCount: 2
Back
SplineSet
-29.8779296875 55 m 5
 80.1220703125 55 l 5
 67.4248046875 0 l 5
 -42.5751953125 0 l 5
 -29.8779296875 55 l 5
175.122070312 55 m 5
 295.122070312 55 l 5
 282.424804688 0 l 5
 162.424804688 0 l 5
 175.122070312 55 l 5
130.575195312 750 m 5
 240.575195312 750 l 5
 227.877929688 695 l 5
 117.877929688 695 l 5
 130.575195312 750 l 5
335.575195312 750 m 5
 455.575195312 750 l 5
 442.877929688 695 l 5
 322.877929688 695 l 5
 335.575195312 750 l 5
240.575195312 750 m 5
 335.575195312 750 l 5
 162.424804688 0 l 5
 67.4248046875 0 l 5
 240.575195312 750 l 5
EndSplineSet
Fore
SplineSet
108 750 m 1
 238 750 l 1
 238 695 l 1
 108 695 l 1
 108 750 l 1
323 750 m 5
 438 750 l 5
 438 695 l 5
 323 695 l 5
 323 750 l 5
71 0 m 1
 237 750 l 1
 337 750 l 5
 172 0 l 5
 71 0 l 1
-40 55 m 1
 85 55 l 1
 85 0 l 1
 -40 0 l 1
 -40 55 l 1
170 55 m 5
 300 55 l 5
 300 0 l 5
 170 0 l 5
 170 55 l 5
EndSplineSet
EndChar

StartChar: J
Encoding: 74 74 21
Width: 596
Flags: HMW
LayerCount: 2
Back
SplineSet
56.74609375 135 m 5
 56.74609375 135 -48.87109375 115 -41.9453125 145 c 4
 -27.6318359375 207 18.9873046875 240 58.9873046875 240 c 4
 93.9873046875 240 117.676757812 217 109.366210938 181 c 5
 92.517578125 160 l 5
 56.74609375 135 l 5
44.3564453125 90 m 5
 -38.9482421875 119 l 5
 -14.865234375 180 l 5
 109.366210938 181 l 5
 94.359375 116 54.0537109375 132 44.3564453125 90 c 5
-41.9453125 145 m 5
 44.3564453125 90 l 5
 40.4326171875 73 48.9677734375 45 130.967773438 45 c 4
 221.967773438 45 288.666015625 100 320.987304688 240 c 5
 422.913085938 270 l 5
 385.974609375 110 279.270507812 -10 118.270507812 -10 c 4
 -18.7294921875 -10 -58.1064453125 75 -41.9453125 145 c 5
298.729492188 750 m 5
 438.729492188 750 l 5
 426.032226562 695 l 5
 286.032226562 695 l 5
 298.729492188 750 l 5
533.729492188 750 m 5
 653.729492188 750 l 5
 641.032226562 695 l 5
 521.032226562 695 l 5
 533.729492188 750 l 5
438.729492188 750 m 5
 533.729492188 750 l 5
 422.913085938 270 l 5
 320.987304688 240 l 5
 438.729492188 750 l 5
EndSplineSet
Fore
SplineSet
113 181 m 4
 113 122 69 138 69 96 c 5
 -30 145 l 5
 -30 207 9 240 49 240 c 4
 84 240 113 217 113 181 c 4
301 750 m 1
 656 750 l 1
 656 695 l 1
 301 695 l 1
 301 750 l 1
-30 145 m 1
 69 96 l 1
 69 79 84 45 146 45 c 0
 217 45 294.734375 107.12109375 326 240 c 2
 441 750 l 1
 541 750 l 1
 426 270 l 2
 386 110 287 -10 146 -10 c 0
 9 -10 -30 75 -30 145 c 1
EndSplineSet
EndChar

StartChar: K
Encoding: 75 75 22
Width: 864
Flags: HMW
LayerCount: 2
Back
SplineSet
781 84 m 5
 766 29 702 -10 636 -10 c 4
 423.03125 -10 632.256835938 345 376 345 c 5
 396 391 l 5
 729.294921875 391 539.228515625 57 672 57 c 4
 703 57 732 73 751 101 c 5
 781 84 l 5
-42.8779296875 55 m 1
 67.1220703125 55 l 1
 54.4248046875 0 l 1
 -55.5751953125 0 l 1
 -42.8779296875 55 l 1
162.122070312 55 m 1
 282.122070312 55 l 1
 269.424804688 0 l 1
 149.424804688 0 l 1
 162.122070312 55 l 1
117.575195312 750 m 1
 227.575195312 750 l 1
 214.877929688 695 l 1
 104.877929688 695 l 1
 117.575195312 750 l 1
322.575195312 750 m 1
 442.575195312 750 l 1
 429.877929688 695 l 1
 309.877929688 695 l 1
 322.575195312 750 l 1
227.575195312 750 m 1
 322.575195312 750 l 1
 149.424804688 0 l 1
 54.4248046875 0 l 1
 227.575195312 750 l 1
184.522460938 217 m 1
 111.522460938 217 l 1
 748.114257812 748 l 1
 823.114257812 748 l 1
 184.522460938 217 l 1
462.122070312 55 m 1
 792.122070312 55 l 1
 779.424804688 0 l 1
 449.424804688 0 l 1
 462.122070312 55 l 1
874.877929688 695 m 1
 574.877929688 695 l 1
 587.575195312 750 l 1
 887.575195312 750 l 1
 874.877929688 695 l 1
711.424804688 0 m 1
 591.424804688 0 l 1
 370.388671875 420 l 1
 452.932617188 470 l 1
 711.424804688 0 l 1
EndSplineSet
Fore
SplineSet
786 0 m 25
 661 0 l 2
 408.03125 0 562.256835938 285 356 385 c 5
 376 431 l 1
 649.294921875 351 554.228515625 55 687 55 c 2
 786 55 l 1
 786 0 l 25
552 750 m 1
 854 750 l 1
 854 695 l 1
 552 695 l 1
 552 750 l 1
-40 55 m 1
 75 55 l 1
 75 0 l 1
 -40 0 l 1
 -40 55 l 1
155 55 m 1
 270 55 l 1
 270 0 l 1
 155 0 l 1
 155 55 l 1
115 750 m 1
 230 750 l 1
 230 695 l 1
 115 695 l 1
 115 750 l 1
310 750 m 1
 425 750 l 1
 425 695 l 1
 310 695 l 1
 310 750 l 1
226 750 m 1
 326 750 l 1
 161 0 l 1
 61 0 l 1
 226 750 l 1
196 217 m 1
 110 217 l 1
 712 750 l 1
 807 750 l 1
 196 217 l 1
EndSplineSet
EndChar

StartChar: L
Encoding: 76 76 23
Width: 716
Flags: HMW
LayerCount: 2
Back
SplineSet
334.575195312 750 m 5
 444.575195312 750 l 5
 431.877929688 695 l 5
 321.877929688 695 l 5
 334.575195312 750 l 5
399.122070312 55 m 21
 536.122070312 55 583.666992188 118 615.295898438 255 c 13
 569.122070312 55 l 5
 399.122070312 55 l 21
569.122070312 55 m 5
 615.295898438 255 l 5
 665.295898438 255 l 5
 619.122070312 55 l 5
 569.122070312 55 l 5
174.122070312 55 m 5
 619.122070312 55 l 5
 606.424804688 0 l 5
 161.424804688 0 l 5
 174.122070312 55 l 5
-30.8779296875 55 m 5
 79.1220703125 55 l 5
 66.4248046875 0 l 5
 -43.5751953125 0 l 5
 -30.8779296875 55 l 5
129.575195312 750 m 5
 239.575195312 750 l 5
 226.877929688 695 l 5
 116.877929688 695 l 5
 129.575195312 750 l 5
239.575195312 750 m 5
 334.575195312 750 l 5
 161.424804688 0 l 5
 66.4248046875 0 l 5
 239.575195312 750 l 5
EndSplineSet
Fore
SplineSet
315 750 m 1
 440 750 l 1
 440 695 l 1
 315 695 l 1
 315 750 l 1
-40 55 m 1
 85 55 l 1
 85 0 l 1
 -40 0 l 1
 -40 55 l 1
104 750 m 1
 239 750 l 1
 239 695 l 1
 104 695 l 1
 104 750 l 1
386 55 m 17
 523 55 576 98 616 255 c 9
 570 55 l 1
 386 55 l 17
556 0 m 1
 616 255 l 1
 666 255 l 1
 606 0 l 1
 556 0 l 1
158 55 m 1
 583 55 l 1
 583 0 l 1
 158 0 l 1
 158 55 l 1
233 750 m 1
 333 750 l 5
 173 0 l 5
 73 0 l 1
 233 750 l 1
EndSplineSet
EndChar

StartChar: M
Encoding: 77 77 24
Width: 1023
Flags: HMW
LayerCount: 2
Back
SplineSet
446.817382812 79 m 5
 371.270507812 -10 l 5
 288.729492188 750 l 5
 379.729492188 750 l 5
 446.817382812 79 l 5
435.270507812 -10 m 5
 371.270507812 -10 l 5
 796.729492188 750 l 5
 865.729492188 750 l 5
 435.270507812 -10 l 5
585.276367188 55 m 5
 910.276367188 55 l 5
 897.579101562 0 l 5
 572.579101562 0 l 5
 585.276367188 55 l 5
-54.7236328125 55 m 5
 240.276367188 55 l 5
 227.579101562 0 l 5
 -67.4208984375 0 l 5
 -54.7236328125 55 l 5
930.729492188 750 m 5
 1040.72949219 750 l 5
 1028.03222656 695 l 5
 918.032226562 695 l 5
 930.729492188 750 l 5
135.729492188 750 m 5
 250.729492188 750 l 5
 238.032226562 695 l 5
 123.032226562 695 l 5
 135.729492188 750 l 5
840.729492188 750 m 5
 930.729492188 750 l 5
 787.579101562 0 l 5
 692.579101562 0 l 5
 840.729492188 750 l 5
250.729492188 750 m 5
 310.729492188 750 l 5
 107.579101562 0 l 5
 42.5791015625 0 l 5
 250.729492188 750 l 5
EndSplineSet
Fore
SplineSet
591 55 m 1
 716 55 l 1
 716 0 l 1
 591 0 l 1
 591 55 l 1
791 55 m 5
 931 55 l 1
 931 0 l 1
 791 0 l 5
 791 55 l 5
-50 55 m 1
 75 55 l 1
 75 0 l 1
 -50 0 l 1
 -50 55 l 1
115 55 m 1
 250 55 l 1
 250 0 l 1
 115 0 l 1
 115 55 l 1
117 750 m 1
 252 750 l 1
 252 695 l 1
 117 695 l 1
 117 750 l 1
908 750 m 1
 1033 750 l 1
 1033 695 l 1
 908 695 l 1
 908 750 l 1
450 79 m 1
 379 -10 l 1
 281 750 l 1
 372 750 l 1
 450 79 l 1
448 -10 m 1
 379 -10 l 1
 789 750 l 1
 863 750 l 1
 448 -10 l 1
838 750 m 1
 923 750 l 1
 793 0 l 5
 703 0 l 1
 838 750 l 1
243 750 m 1
 306 750 l 1
 121 0 l 1
 53 0 l 1
 243 750 l 1
EndSplineSet
EndChar

StartChar: N
Encoding: 78 78 25
Width: 898
Flags: HMW
LayerCount: 2
Back
SplineSet
662.270507812 -10 m 5
 627.270507812 -10 l 5
 649.202148438 85 l 5
 684.202148438 85 l 5
 662.270507812 -10 l 5
662.729492188 750 m 5
 772.729492188 750 l 5
 760.032226562 695 l 5
 650.032226562 695 l 5
 662.729492188 750 l 5
679.12890625 115 m 5
 627.270507812 -10 l 5
 217.729492188 750 l 5
 342.729492188 750 l 5
 679.12890625 115 l 5
-32.7236328125 55 m 5
 72.2763671875 55 l 5
 59.5791015625 0 l 5
 -45.4208984375 0 l 5
 -32.7236328125 55 l 5
137.276367188 55 m 5
 252.276367188 55 l 5
 239.579101562 0 l 5
 124.579101562 0 l 5
 137.276367188 55 l 5
837.729492188 750 m 5
 942.729492188 750 l 5
 930.032226562 695 l 5
 825.032226562 695 l 5
 837.729492188 750 l 5
127.729492188 750 m 5
 232.729492188 750 l 5
 220.032226562 695 l 5
 115.032226562 695 l 5
 127.729492188 750 l 5
772.729492188 750 m 5
 837.729492188 750 l 5
 662.270507812 -10 l 5
 611.122070312 50 l 5
 772.729492188 750 l 5
232.729492188 750 m 5
 297.729492188 750 l 5
 124.579101562 0 l 5
 59.5791015625 0 l 5
 232.729492188 750 l 5
EndSplineSet
Fore
SplineSet
643 750 m 1
 768 750 l 1
 768 695 l 1
 643 695 l 1
 643 750 l 1
808 750 m 1
 938 750 l 1
 938 695 l 1
 808 695 l 1
 808 750 l 1
-40 55 m 1
 85 55 l 1
 85 0 l 1
 -40 0 l 1
 -40 55 l 1
125 55 m 1
 260 55 l 1
 260 0 l 1
 125 0 l 1
 125 55 l 1
670 -10 m 1
 640 -10 l 1
 635 85 l 1
 670 85 l 1
 670 -10 l 1
673 120 m 5
 640 -10 l 1
 210 750 l 1
 333 750 l 1
 673 120 l 5
120 750 m 1
 225 750 l 1
 225 695 l 1
 120 695 l 1
 120 750 l 1
765 750 m 1
 830 750 l 1
 670 -10 l 1
 618 50 l 1
 765 750 l 1
225 750 m 1
 288 750 l 1
 128 0 l 1
 65 0 l 1
 225 750 l 1
EndSplineSet
EndChar

StartChar: O
Encoding: 79 79 26
Width: 830
Flags: HMW
LayerCount: 2
Back
SplineSet
170 375 m 4
 127.982421875 193 163.659179688 40 337.659179688 40 c 4
 521.659179688 40 617.982421875 193 660 375 c 4
 702.017578125 557 666.340820312 710 492.340820312 710 c 4
 318.340820312 710 212.017578125 557 170 375 c 4
55 375 m 4
 104.174804688 588 280.883789062 760 503.883789062 760 c 4
 726.883789062 760 824.174804688 588 775 375 c 4
 725.825195312 162 539.116210938 -10 326.116210938 -10 c 4
 103.116210938 -10 5.8251953125 162 55 375 c 4
EndSplineSet
Fore
SplineSet
485 760 m 5
 678 760 785 643 785 450 c 4
 785 217 588 -10 345 -10 c 5
 345 40 l 5
 539 40 670 273 670 445 c 4
 670 597 629 710 485 710 c 5
 485 760 l 5
345 -10 m 5
 152 -10 45 107 45 300 c 4
 45 533 242 760 485 760 c 5
 485 710 l 5
 291 710 160 477 160 305 c 4
 160 153 201 40 345 40 c 5
 345 -10 l 5
EndSplineSet
EndChar

StartChar: P
Encoding: 80 80 27
Width: 687
Flags: HMW
LayerCount: 2
Back
SplineSet
163.122070312 55 m 5
 273.122070312 55 l 5
 260.424804688 0 l 5
 150.424804688 0 l 5
 163.122070312 55 l 5
389.30859375 385 m 5
 485.30859375 385 554.545898438 451 575.092773438 540 c 4
 595.640625 629 556.877929688 695 460.877929688 695 c 5
 473.575195312 750 l 5
 654.575195312 750 715.106445312 670 685.092773438 540 c 4
 655.080078125 410 557.611328125 330 376.611328125 330 c 5
 389.30859375 385 l 5
228.575195312 750 m 5
 323.575195312 750 l 5
 150.424804688 0 l 5
 55.4248046875 0 l 5
 228.575195312 750 l 5
118.575195312 750 m 5
 228.575195312 750 l 5
 215.877929688 695 l 5
 105.877929688 695 l 5
 118.575195312 750 l 5
-41.8779296875 55 m 5
 68.1220703125 55 l 5
 55.4248046875 0 l 5
 -54.5751953125 0 l 5
 -41.8779296875 55 l 5
239.30859375 385 m 5
 389.30859375 385 l 5
 376.611328125 330 l 5
 226.611328125 330 l 5
 239.30859375 385 l 5
323.575195312 750 m 5
 473.575195312 750 l 5
 460.877929688 695 l 5
 310.877929688 695 l 5
 323.575195312 750 l 5
EndSplineSet
Fore
SplineSet
110 750 m 1
 225 750 l 1
 225 695 l 1
 110 695 l 1
 110 750 l 1
-40 55 m 1
 75 55 l 1
 75 0 l 1
 -40 0 l 1
 -40 55 l 1
155 55 m 1
 290 55 l 1
 290 0 l 1
 155 0 l 1
 155 55 l 1
377 385 m 1
 473 385 577 451 577 580 c 0
 577 629 563 695 467 695 c 1
 467 750 l 1
 648 750 687 670 687 580 c 0
 687 410 558 330 377 330 c 1
 377 385 l 1
222 750 m 1
 322 750 l 5
 162 0 l 5
 62 0 l 1
 222 750 l 1
207 385 m 1
 377 385 l 1
 377 330 l 1
 207 330 l 1
 207 385 l 1
297 750 m 1
 467 750 l 1
 467 695 l 1
 297 695 l 1
 297 750 l 1
EndSplineSet
EndChar

StartChar: Q
Encoding: 81 81 28
Width: 830
Flags: HMW
LayerCount: 2
Back
SplineSet
120.716796875 -108 m 5
 115.407226562 -131 149.252929688 -136 140.94140625 -172 c 4
 132.399414062 -209 97.55078125 -230 70.55078125 -230 c 4
 33.55078125 -230 13.015625 -202 21.7880859375 -164 c 5
 120.716796875 -108 l 5
473.283203125 -148.864257812 m 5
 478.592773438 -125.864257812 444.747070312 -120.864257812 453.05859375 -84.8642578125 c 4
 461.600585938 -47.8642578125 496.44921875 -26.8642578125 523.44921875 -26.8642578125 c 4
 560.44921875 -26.8642578125 580.984375 -54.8642578125 572.211914062 -92.8642578125 c 5
 473.283203125 -148.864257812 l 5
166.952148438 -68 m 4
 139.952148438 -68 124.641601562 -91 120.716796875 -108 c 5
 21.7880859375 -164 l 5
 43.720703125 -69 123.416992188 -27 202.416992188 -27 c 4
 341.953125 -27 359.663085938 -188.864257812 427.047851562 -188.864257812 c 4
 455.047851562 -188.864257812 469.358398438 -165.864257812 473.283203125 -148.864257812 c 5
 572.211914062 -92.8642578125 l 5
 550.279296875 -187.864257812 470.583007812 -229.864257812 391.583007812 -229.864257812 c 4
 252.046875 -229.864257812 234.336914062 -68 166.952148438 -68 c 4
245.706054688 65 m 1
 198.786132812 100 l 1
 163.634765625 121 219.65234375 303 358.65234375 303 c 0
 533.65234375 303 499.157226562 -37 586.157226562 -37 c 0
 648.157226562 -37 687.702148438 26 700.630859375 82 c 1
 750.630859375 82 l 1
 750.630859375 82 l 1
 723.311523438 -32 651.840820312 -125 557.840820312 -125 c 0
 388.840820312 -125 511.181640625 210 339.181640625 210 c 0
 259.181640625 210 206.787109375 113 245.706054688 65 c 1
183.275390625 375 m 0
 141.256835938 193 176.93359375 40 350.93359375 40 c 0
 534.93359375 40 631.256835938 193 673.275390625 375 c 0
 715.29296875 557 679.616210938 710 505.616210938 710 c 0
 331.616210938 710 225.29296875 557 183.275390625 375 c 0
68.275390625 375 m 0
 117.450195312 588 294.159179688 760 517.159179688 760 c 0
 740.159179688 760 837.450195312 588 788.275390625 375 c 0
 739.099609375 162 552.390625 -10 339.390625 -10 c 0
 116.390625 -10 19.099609375 162 68.275390625 375 c 0
EndSplineSet
Fore
SplineSet
345 -10 m 1
 152 -10 45 107 45 300 c 0
 45 533 242 760 485 760 c 1
 485 710 l 1
 291 710 160 477 160 305 c 0
 160 153 201 40 345 40 c 1
 345 -10 l 1
485 760 m 1
 678 760 785 643 785 450 c 0
 785 217 588 -10 345 -10 c 1
 345 40 l 1
 539 40 670 273 670 445 c 0
 670 597 629 710 485 710 c 1
 485 760 l 1
171 -106 m 1
 171 -131 201 -136 201 -172 c 0
 201 -209 171 -230 144 -230 c 0
 107 -230 80 -202 80 -164 c 1
 171 -106 l 1
543 -168.864257812 m 5
 543 -140.864257812 513 -140.864257812 513 -104.864257812 c 4
 513 -67.8642578125 546 -46.8642578125 573 -46.8642578125 c 4
 610 -46.8642578125 634 -73.8642578125 634 -107.864257812 c 5
 543 -168.864257812 l 5
213 -73 m 0
 182 -73 171 -89 171 -106 c 1
 80 -164 l 1
 80 -79 160 -27 239 -27 c 0
 378.536132812 -27 433.615234375 -203.864257812 501 -203.864257812 c 4
 533 -203.864257812 543 -185.864257812 543 -168.864257812 c 5
 634 -107.864257812 l 5
 634 -202.864257812 559 -249.864257812 480 -249.864257812 c 4
 330.463867188 -249.864257812 300.384765625 -73 213 -73 c 0
EndSplineSet
EndChar

StartChar: R
Encoding: 82 82 29
Width: 774
Flags: HMW
LayerCount: 2
Back
SplineSet
435.080078125 405 m 5
 511.080078125 405 595.700195312 451 618.556640625 550 c 4
 641.412109375 649 578.032226562 695 502.032226562 695 c 5
 514.729492188 750 l 5
 695.729492188 750 743.952148438 660 718.556640625 550 c 4
 693.161132812 440 616.615234375 364 425.615234375 364 c 5
 435.080078125 405 l 5
324.729492188 750 m 5
 514.729492188 750 l 5
 502.032226562 695 l 5
 312.032226562 695 l 5
 324.729492188 750 l 5
245.080078125 405 m 5
 455.080078125 405 l 5
 441.228515625 345 l 5
 231.228515625 345 l 5
 245.080078125 405 l 5
-40.7236328125 55 m 5
 69.2763671875 55 l 5
 56.5791015625 0 l 5
 -53.4208984375 0 l 5
 -40.7236328125 55 l 5
119.729492188 750 m 5
 229.729492188 750 l 5
 217.032226562 695 l 5
 107.032226562 695 l 5
 119.729492188 750 l 5
229.729492188 750 m 5
 324.729492188 750 l 5
 151.579101562 0 l 5
 56.5791015625 0 l 5
 229.729492188 750 l 5
164.276367188 55 m 5
 274.276367188 55 l 5
 261.579101562 0 l 5
 151.579101562 0 l 5
 164.276367188 55 l 5
725.971679688 84 m 5
 698.274414062 29 645.270507812 -10 579.270507812 -10 c 4
 346.301757812 -10 647.485351562 345 391.228515625 345 c 5
 419.5390625 381 l 5
 762.833984375 381 487.966796875 57 620.73828125 57 c 4
 641.73828125 57 676.81640625 66 699.896484375 101 c 5
 725.971679688 84 l 5
EndSplineSet
Fore
SplineSet
155 55 m 1
 290 55 l 1
 290 0 l 1
 155 0 l 1
 155 55 l 1
110 750 m 5
 225 750 l 1
 225 695 l 1
 110 695 l 1
 110 750 l 5
-40 55 m 1
 75 55 l 1
 75 0 l 1
 -40 0 l 1
 -40 55 l 1
419 405 m 1
 495 405 609 471 609 580 c 0
 609 649 575 695 489 695 c 1
 489 750 l 1
 660 750 709 670 709 580 c 0
 709 460 610 364 419 364 c 1
 419 405 l 1
297 750 m 1
 489 750 l 1
 489 695 l 1
 297 695 l 1
 297 750 l 1
217 405 m 1
 439 405 l 1
 439 345 l 1
 217 345 l 1
 217 405 l 1
222 750 m 1
 322 750 l 1
 162 0 l 1
 62 0 l 1
 222 750 l 1
724 84 m 1
 709 29 665 -10 599 -10 c 0
 515 -10 494 32 494 87 c 0
 494 137 512 198 512 248 c 0
 512 303 492 345 409 345 c 1
 429 381 l 1
 581 381 615 327 615 256 c 0
 615 200 594 136 594 99 c 0
 594 77 608 59 631 59 c 0
 652 59 679 66 694 101 c 1
 724 84 l 1
EndSplineSet
Substitution2: "'ss01' Style Set 1 lookup 2-1" uniFFFD
EndChar

StartChar: S
Encoding: 83 83 30
Width: 649
Flags: HMW
LayerCount: 2
Back
SplineSet
598.525390625 595 m 1
 567.747070312 505 l 1
 595.220703125 624 533.844726562 709 419.844726562 709 c 0
 303.844726562 709 247.146484375 654 231.216796875 585 c 1
 134.291015625 555 l 1
 166.612304688 695 290.618164062 760 421.618164062 760 c 0
 537.618164062 760 619.303710938 685 598.525390625 595 c 1
567.747070312 505 m 5
 624.309570312 750 l 5
 679.309570312 750 l 5
 622.747070312 505 l 5
 567.747070312 505 l 5
559.684570312 652 m 21
 624.309570312 750 l 13
 587.37109375 590 l 5
 559.684570312 652 l 21
134.291015625 555 m 1
 231.216796875 585 l 1
 182.734375 375 658.518554688 530 584.641601562 210 c 1
 488.869140625 185 l 1
 541.96875 415 67.3388671875 265 134.291015625 555 c 1
58.09765625 160 m 1
 90.0302734375 255 l 1
 67.173828125 156 120.469726562 36 264.469726562 36 c 0
 400.469726562 36 472.939453125 116 488.869140625 185 c 1
 584.641601562 210 l 1
 552.319335938 70 433.696289062 -15 262.696289062 -15 c 0
 126.696289062 -15 39.6279296875 80 58.09765625 160 c 1
90.0302734375 255 m 5
 30.0048828125 -5 l 5
 -24.9951171875 -5 l 5
 35.0302734375 255 l 5
 90.0302734375 255 l 5
96.9384765625 103 m 21
 30.0048828125 -5 l 13
 69.251953125 165 l 5
 96.9384765625 103 l 21
EndSplineSet
Fore
SplineSet
567 505 m 1
 624 750 l 1
 679 750 l 1
 627 505 l 1
 567 505 l 1
559 652 m 17
 624 750 l 9
 587 590 l 1
 559 652 l 17
90 255 m 1
 30 -5 l 1
 -30 -5 l 1
 35 255 l 1
 90 255 l 1
97 103 m 17
 30 -5 l 9
 69 165 l 1
 97 103 l 17
57 155 m 1
 90 255 l 1
 50 86 178 39 292 39 c 0
 467 39 492 141 492 200 c 1
 592 225 l 1
 592 75 473 -15 292 -15 c 0
 116 -15 57 67 57 155 c 1
115 548 m 5
 212 570 l 5
 212 409 592 475 592 225 c 1
 492 200 l 1
 492 401 115 328 115 548 c 5
624 587 m 1
 567 505 l 1
 592 621 522 709 388 709 c 0
 289 709 212 652 212 570 c 1
 115 548 l 5
 115 698 278 765 392 765 c 0
 518 765 594 700 624 587 c 1
EndSplineSet
EndChar

StartChar: T
Encoding: 84 84 31
Width: 739
Flags: HMW
LayerCount: 2
Back
SplineSet
552.032226562 700 m 13
 722.032226562 700 l 5
 674.704101562 495 l 21
 710.950195312 652 689.032226562 700 552.032226562 700 c 13
722.032226562 700 m 5
 772.032226562 700 l 5
 724.704101562 495 l 5
 674.704101562 495 l 5
 722.032226562 700 l 5
317.032226562 700 m 21
 180.032226562 700 135.950195312 652 99.7041015625 495 c 13
 147.032226562 700 l 5
 317.032226562 700 l 21
147.032226562 700 m 5
 99.7041015625 495 l 5
 49.7041015625 495 l 5
 97.0322265625 700 l 5
 147.032226562 700 l 5
398.575195312 750 m 5
 387.032226562 700 l 5
 97.0322265625 700 l 5
 108.575195312 750 l 5
 398.575195312 750 l 5
333.122070312 55 m 5
 463.122070312 55 l 5
 450.424804688 0 l 5
 320.424804688 0 l 5
 333.122070312 55 l 5
493.575195312 750 m 5
 783.575195312 750 l 5
 772.032226562 700 l 5
 482.032226562 700 l 5
 493.575195312 750 l 5
108.122070312 55 m 5
 238.122070312 55 l 5
 225.424804688 0 l 5
 95.4248046875 0 l 5
 108.122070312 55 l 5
398.575195312 750 m 5
 493.575195312 750 l 5
 320.424804688 0 l 5
 225.424804688 0 l 5
 398.575195312 750 l 5
EndSplineSet
Fore
SplineSet
121 55 m 1
 246 55 l 1
 246 0 l 1
 121 0 l 1
 121 55 l 1
331 55 m 5
 466 55 l 5
 466 0 l 5
 331 0 l 5
 331 55 l 5
562 700 m 13
 728 700 l 5
 680 495 l 21
 713 652 699 700 562 700 c 13
739 750 m 5
 789 750 l 5
 730 495 l 5
 680 495 l 5
 739 750 l 5
322 700 m 17
 185 700 140 652 100 495 c 9
 145 700 l 1
 322 700 l 17
157 750 m 1
 100 495 l 1
 50 495 l 1
 107 750 l 1
 157 750 l 1
392 750 m 1
 392 700 l 1
 145 700 l 1
 157 750 l 1
 392 750 l 1
472 750 m 5
 739 750 l 5
 728 700 l 5
 472 700 l 5
 472 750 l 5
392 750 m 1
 492 750 l 5
 332 0 l 5
 232 0 l 1
 392 750 l 1
EndSplineSet
EndChar

StartChar: U
Encoding: 85 85 32
Width: 832
Flags: HMW
LayerCount: 2
Back
SplineSet
214.311523438 750 m 5
 309.311523438 750 l 5
 207.729492188 310 l 5
 110.420898438 300 l 5
 214.311523438 750 l 5
724.311523438 750 m 5
 784.311523438 750 l 5
 680.420898438 300 l 5
 620.420898438 300 l 5
 724.311523438 750 l 5
309.311523438 750 m 5
 429.311523438 750 l 5
 416.614257812 695 l 5
 296.614257812 695 l 5
 309.311523438 750 l 5
104.311523438 750 m 5
 214.311523438 750 l 5
 201.614257812 695 l 5
 91.6142578125 695 l 5
 104.311523438 750 l 5
784.311523438 750 m 5
 894.311523438 750 l 5
 881.614257812 695 l 5
 771.614257812 695 l 5
 784.311523438 750 l 5
599.311523438 750 m 5
 724.311523438 750 l 5
 711.614257812 695 l 5
 586.614257812 695 l 5
 599.311523438 750 l 5
620.420898438 300 m 5
 680.420898438 300 l 5
 630.784179688 85 525.698242188 -15 327.698242188 -15 c 4
 114.698242188 -15 68.1728515625 117 110.420898438 300 c 5
 207.729492188 310 l 5
 172.637695312 158 192.549804688 45 356.549804688 45 c 4
 510.549804688 45 578.403320312 118 620.420898438 300 c 5
EndSplineSet
Fore
SplineSet
597 750 m 1
 727 750 l 1
 727 695 l 1
 597 695 l 1
 597 750 l 1
772 750 m 1
 882 750 l 5
 882 695 l 5
 772 695 l 1
 772 750 l 1
97 750 m 1
 217 750 l 1
 217 695 l 1
 97 695 l 1
 97 750 l 1
297 750 m 1
 417 750 l 1
 417 695 l 1
 297 695 l 1
 297 750 l 1
726 750 m 1
 786 750 l 1
 676 300 l 2
 626 97 524 -15 326 -15 c 0
 149.212890625 -15 90 67 90 182 c 0
 90 219 95.8671875 258.262695312 106 300 c 2
 216 750 l 1
 316 750 l 1
 206 310 l 2
 195.213867188 267.155273438 188 226 188 190 c 0
 188 105 226.13671875 45 341 45 c 0
 495 45 574 128 616 300 c 2
 726 750 l 1
EndSplineSet
EndChar

StartChar: V
Encoding: 86 86 33
Width: 845
Flags: HMW
LayerCount: 2
Back
SplineSet
382.609375 695 m 5
 52.609375 695 l 5
 65.306640625 750 l 5
 395.306640625 750 l 5
 382.609375 695 l 5
912.609375 695 m 5
 632.609375 695 l 5
 645.306640625 750 l 5
 925.306640625 750 l 5
 912.609375 695 l 5
384.853515625 55 m 5
 298.693359375 -15 l 5
 155.306640625 750 l 5
 265.306640625 750 l 5
 384.853515625 55 l 5
353.693359375 -15 m 5
 298.693359375 -15 l 5
 790.306640625 750 l 5
 845.306640625 750 l 5
 353.693359375 -15 l 5
EndSplineSet
Fore
SplineSet
390 695 m 1
 70 695 l 1
 70 750 l 1
 390 750 l 1
 390 695 l 1
920 695 m 1
 640 695 l 1
 640 750 l 1
 920 750 l 1
 920 695 l 1
383 55 m 5
 305 -15 l 1
 160 750 l 1
 268 750 l 5
 383 55 l 5
372 -15 m 1
 305 -15 l 1
 783 750 l 1
 855 750 l 1
 372 -15 l 1
EndSplineSet
EndChar

StartChar: W
Encoding: 87 87 34
Width: 1169
Flags: HMW
LayerCount: 2
Back
SplineSet
1245.03222656 695 m 5
 965.032226562 695 l 5
 977.729492188 750 l 5
 1257.72949219 750 l 5
 1245.03222656 695 l 5
763.276367188 55 m 5
 678.270507812 -10 l 5
 617.729492188 750 l 5
 717.729492188 750 l 5
 763.276367188 55 l 5
737.270507812 -10 m 5
 678.270507812 -10 l 5
 1107.72949219 750 l 5
 1165.72949219 750 l 5
 737.270507812 -10 l 5
395.032226562 695 m 5
 65.0322265625 695 l 5
 77.7294921875 750 l 5
 407.729492188 750 l 5
 395.032226562 695 l 5
815.032226562 695 m 5
 535.032226562 695 l 5
 547.729492188 750 l 5
 827.729492188 750 l 5
 815.032226562 695 l 5
342.276367188 55 m 5
 257.270507812 -10 l 5
 167.729492188 750 l 5
 267.729492188 750 l 5
 342.276367188 55 l 5
317.270507812 -10 m 5
 257.270507812 -10 l 5
 653.104492188 652 l 5
 711.104492188 652 l 5
 317.270507812 -10 l 5
EndSplineSet
Fore
SplineSet
1244 695 m 1
 970 695 l 1
 970 750 l 1
 1244 750 l 1
 1244 695 l 1
771 65 m 1
 686 -10 l 1
 610 750 l 1
 709 750 l 1
 771 65 l 1
753 -10 m 5
 686 -10 l 5
 1095 750 l 1
 1158 750 l 1
 753 -10 l 5
380 695 m 1
 70 695 l 1
 70 750 l 1
 380 750 l 1
 380 695 l 1
801 695 m 1
 521 695 l 1
 521 750 l 1
 801 750 l 1
 801 695 l 1
349 55 m 1
 265 -10 l 1
 160 750 l 1
 260 750 l 1
 349 55 l 1
328 -10 m 1
 265 -10 l 1
 656 642 l 1
 706 622 l 1
 328 -10 l 1
EndSplineSet
EndChar

StartChar: X
Encoding: 88 88 35
Width: 870
Flags: HMW
LayerCount: 2
Back
SplineSet
475.461914062 377 m 5
 407.461914062 377 l 5
 782.114257812 748 l 5
 847.114257812 748 l 5
 475.461914062 377 l 5
77.4248046875 0 m 5
 9.4248046875 0 l 5
 436.696289062 417 l 5
 501.696289062 417 l 5
 77.4248046875 0 l 5
466.122070312 55 m 5
 796.122070312 55 l 5
 783.424804688 0 l 5
 453.424804688 0 l 5
 466.122070312 55 l 5
-53.8779296875 55 m 5
 246.122070312 55 l 5
 233.424804688 0 l 5
 -66.5751953125 0 l 5
 -53.8779296875 55 l 5
458.877929688 695 m 5
 128.877929688 695 l 5
 141.575195312 750 l 5
 471.575195312 750 l 5
 458.877929688 695 l 5
908.877929688 695 m 5
 608.877929688 695 l 5
 621.575195312 750 l 5
 921.575195312 750 l 5
 908.877929688 695 l 5
719.424804688 0 m 5
 599.424804688 0 l 5
 201.575195312 750 l 5
 317.575195312 750 l 5
 719.424804688 0 l 5
EndSplineSet
Fore
SplineSet
477 382 m 1
 404 382 l 1
 776 748 l 1
 851 748 l 1
 477 382 l 1
84 0 m 5
 6 0 l 5
 425 417 l 5
 495 407 l 5
 84 0 l 5
460 55 m 1
 790 55 l 1
 790 0 l 1
 460 0 l 1
 460 55 l 1
-60 55 m 1
 240 55 l 1
 240 0 l 1
 -60 0 l 1
 -60 55 l 1
465 695 m 1
 135 695 l 1
 135 750 l 1
 465 750 l 1
 465 695 l 1
915 695 m 1
 615 695 l 1
 615 750 l 1
 915 750 l 1
 915 695 l 1
718 0 m 1
 602 0 l 1
 203 750 l 1
 314 750 l 1
 718 0 l 1
EndSplineSet
EndChar

StartChar: Y
Encoding: 89 89 36
Width: 780
Flags: HMW
LayerCount: 2
Back
SplineSet
161.122070312 55 m 5
 271.122070312 55 l 5
 258.424804688 0 l 5
 148.424804688 0 l 5
 161.122070312 55 l 5
366.122070312 55 m 5
 486.122070312 55 l 5
 473.424804688 0 l 5
 353.424804688 0 l 5
 366.122070312 55 l 5
339.228515625 350 m 5
 434.228515625 350 l 5
 353.424804688 0 l 5
 258.424804688 0 l 5
 339.228515625 350 l 5
416.609375 317 m 5
 347.609375 317 l 5
 727.114257812 748 l 5
 797.114257812 748 l 5
 416.609375 317 l 5
393.877929688 695 m 5
 63.8779296875 695 l 5
 76.5751953125 750 l 5
 406.575195312 750 l 5
 393.877929688 695 l 5
848.877929688 695 m 5
 548.877929688 695 l 5
 561.575195312 750 l 5
 861.575195312 750 l 5
 848.877929688 695 l 5
429.534179688 334 m 5
 333.684570312 300 l 5
 136.575195312 750 l 5
 246.575195312 750 l 5
 429.534179688 334 l 5
EndSplineSet
Fore
SplineSet
154 55 m 1
 279 55 l 1
 279 0 l 1
 154 0 l 1
 154 55 l 1
364 55 m 5
 499 55 l 5
 499 0 l 5
 364 0 l 5
 364 55 l 5
345 350 m 1
 445 350 l 1
 365 0 l 1
 265 0 l 1
 345 350 l 1
430 317 m 1
 361 322 l 1
 721 748 l 1
 799 748 l 1
 430 317 l 1
380 695 m 1
 70 695 l 1
 70 750 l 1
 380 750 l 1
 380 695 l 1
855 695 m 1
 555 695 l 1
 555 750 l 1
 855 750 l 1
 855 695 l 1
439 334 m 1
 351 290 l 1
 135 750 l 1
 250 750 l 1
 439 334 l 1
EndSplineSet
EndChar

StartChar: Z
Encoding: 90 90 37
Width: 735
Flags: HMW
LayerCount: 2
Back
SplineSet
368.877929688 695 m 17
 231.877929688 695 188.950195312 652 157.321289062 515 c 9
 198.877929688 695 l 1
 368.877929688 695 l 17
401.122070312 55 m 17
 538.122070312 55 581.049804688 98 617.295898438 255 c 9
 571.122070312 55 l 1
 401.122070312 55 l 17
613.877929688 695 m 1
 728.877929688 695 l 1
 76.1220703125 55 l 1
 -38.8779296875 55 l 1
 613.877929688 695 l 1
571.122070312 55 m 1
 617.295898438 255 l 1
 667.295898438 255 l 1
 621.122070312 55 l 1
 571.122070312 55 l 1
157.321289062 515 m 1
 107.321289062 515 l 1
 148.877929688 695 l 1
 198.877929688 695 l 1
 157.321289062 515 l 1
-38.8779296875 55 m 1
 621.122070312 55 l 1
 608.424804688 0 l 1
 -51.5751953125 0 l 1
 -38.8779296875 55 l 1
741.575195312 750 m 1
 728.877929688 695 l 1
 148.877929688 695 l 1
 161.575195312 750 l 1
 741.575195312 750 l 1
EndSplineSet
Fore
SplineSet
395 55 m 17
 532 55 585 98 625 255 c 9
 579 55 l 1
 395 55 l 17
565 0 m 1
 625 255 l 1
 675 255 l 1
 615 0 l 1
 565 0 l 1
355 695 m 17
 218 695 170 652 135 515 c 9
 175 695 l 1
 355 695 l 17
605 695 m 1
 735 695 l 1
 85 55 l 1
 -45 55 l 1
 605 695 l 1
135 515 m 1
 85 515 l 1
 140 750 l 1
 190 750 l 1
 135 515 l 1
-45 55 m 1
 605 55 l 1
 605 0 l 1
 -45 0 l 1
 -45 55 l 1
735 750 m 1
 735 695 l 1
 175 695 l 1
 190 750 l 1
 735 750 l 1
EndSplineSet
EndChar

StartChar: a
Encoding: 97 97 38
Width: 636
VWidth: 1155
Flags: HMW
LayerCount: 2
Back
SplineSet
313.00390625 299 m 1
 304.23046875 261 l 1
 188.23046875 261 136.611328125 215 118.833984375 138 c 0
 103.366210938 71 145.59375 46 195.59375 46 c 0
 263.59375 46 329.061523438 100 350.0703125 191 c 1
 371.299804688 179 l 1
 342.671875 55 248.666015625 -10 137.666015625 -10 c 0
 48.666015625 -10 -6.021484375 39 13.37109375 123 c 0
 35.072265625 217 141.00390625 299 313.00390625 299 c 1
480.703125 367 m 1
 412.366210938 71 l 1
 322.828125 73 l 1
 393.01171875 377 l 1
 480.703125 367 l 1
108.013671875 403 m 1
 125.791015625 480 229.333984375 530 330.333984375 530 c 0
 480.333984375 530 499.403320312 448 480.703125 367 c 1
 390.703125 367 l 1
 406.170898438 434 394.71484375 484 304.71484375 484 c 0
 250.71484375 484 208.328125 465 203.7109375 445 c 1
 108.013671875 403 l 1
313.00390625 299 m 1
 427.00390625 299 l 1
 418.23046875 261 l 1
 304.23046875 261 l 1
 313.00390625 299 l 1
520.518554688 63 m 1
 485.975585938 13 438.666015625 -10 395.666015625 -10 c 0
 348.666015625 -10 309.206054688 14 322.828125 73 c 1
 412.366210938 71 l 1
 407.749023438 51 417.670898438 42 431.670898438 42 c 0
 446.670898438 42 466.055664062 48 492.905273438 82 c 1
 520.518554688 63 l 1
219.705078125 393 m 0
 211.85546875 359 186.469726562 340 152.469726562 340 c 0
 121.469726562 340 97.85546875 359 108.013671875 403 c 1
 203.7109375 445 l 1
 199.5546875 427 228.708984375 432 219.705078125 393 c 0
EndSplineSet
Fore
SplineSet
606 163 m 1
 568 63 499 -10 428 -10 c 0
 381 -10 357 13 357 63 c 0
 357 68 358 79 359 85 c 2
 381.076171875 182 l 1
 406 263 l 1
 421.358398438 359 l 1
 458 520 l 1
 550 520 l 1
 447 89 l 2
 445.639648438 83.3076171875 445 76 445 71 c 0
 445 60 450 52 463 52 c 0
 497 52 545 110 568 176 c 1
 606 163 l 1
442 320 m 0
 442 182 333 -10 192 -10 c 4
 103 -10 20 40 20 180 c 0
 20 380 193 529 302 529 c 0
 413 529 442 442 442 320 c 0
408 320 m 0
 408 404 391 478 310 478 c 0
 226 478 120 324 120 180 c 0
 120 96 156 42 220 42 c 4
 311 42 408 206 408 320 c 0
EndSplineSet
EndChar

StartChar: b
Encoding: 98 98 39
Width: 574
VWidth: 1155
Flags: HMW
LayerCount: 2
Back
SplineSet
142.141601562 260 m 4
 115.822265625 146 148.8125 42 239.8125 42 c 4
 323.8125 42 403.822265625 146 430.141601562 260 c 4
 456.4609375 374 424.470703125 478 340.470703125 478 c 4
 249.470703125 478 168.4609375 374 142.141601562 260 c 4
113.141601562 260 m 4
 150.541992188 422 249.245117188 529 370.245117188 529 c 4
 489.245117188 529 569.388671875 430 530.141601562 260 c 4
 490.893554688 90 364.806640625 -10 245.806640625 -10 c 4
 124.806640625 -10 75.7412109375 98 113.141601562 260 c 4
-85.1865234375 55 m 5
 4.8134765625 55 l 5
 -7.8837890625 0 l 5
 -97.8837890625 0 l 5
 -85.1865234375 55 l 5
82.193359375 780 m 5
 172.193359375 780 l 5
 159.495117188 725 l 5
 69.4951171875 725 l 5
 82.193359375 780 l 5
172.193359375 780 m 5
 262.193359375 780 l 5
 82.1162109375 0 l 5
 -7.8837890625 0 l 5
 172.193359375 780 l 5
EndSplineSet
Fore
SplineSet
524 330 m 1
 424 330 l 1
 424 414 408 478 354 478 c 0
 263 478 168 374 141 260 c 1
 112 260 l 1
 149 432 256 529 367 529 c 0
 456 529 524 470 524 330 c 1
81 780 m 1
 171 780 l 1
 171 725 l 1
 81 725 l 1
 81 780 l 1
171 780 m 1
 261 780 l 1
 114 140 l 1
 20 120 l 1
 171 780 l 1
20 120 m 1
 114 140 l 1
 114 86 143 42 204 42 c 4
 328 42 424 196 424 330 c 1
 524 330 l 1
 524 140 371 -10 202 -10 c 4
 91 -10 50 48 20 120 c 1
EndSplineSet
EndChar

StartChar: c
Encoding: 99 99 40
Width: 540
VWidth: 1155
Flags: HMW
LayerCount: 2
Back
SplineSet
31.9990234375 250 m 1
 137.616210938 270 l 1
 108.98828125 146 123.286132812 39 232.286132812 39 c 0
 315.286132812 39 379.752929688 93 423.221679688 173 c 1
 477.221679688 173 l 1
 421.51953125 66 339.973632812 -10 218.973632812 -10 c 0
 47.9736328125 -10 -0.322265625 110 31.9990234375 250 c 1
507.2421875 371 m 1
 431.170898438 427 l 1
 437.404296875 454 398.791015625 473 344.791015625 473 c 0
 235.791015625 473 161.626953125 364 137.616210938 260 c 1
 31.9990234375 240 l 1
 68.9375 400 184.641601562 520 345.641601562 520 c 0
 467.641601562 520 526.173828125 453 507.2421875 371 c 1
431.170898438 437 m 1
 507.2421875 381 l 1
 496.161132812 333 457.004882812 315 428.004882812 315 c 0
 401.004882812 315 375.853515625 336 384.395507812 373 c 0
 392.70703125 409 425.861328125 414 431.170898438 437 c 1
EndSplineSet
Fore
SplineSet
20 170 m 1
 122 170 l 1
 122 96 138 39 207 39 c 4
 290 39 362 113 397 173 c 1
 451 173 l 1
 410 86 316 -10 195 -10 c 4
 84 -10 20 40 20 170 c 1
490 392 m 1
 394 437 l 1
 394 464 381 483 337 483 c 0
 218 483 122 334 122 170 c 1
 20 170 l 1
 20 370 176 530 337 530 c 0
 449 530 490 474 490 392 c 1
394 437 m 1
 490 392 l 1
 490 334 451 315 417 315 c 0
 389 315 362 331 362 368 c 0
 362 404 394 414 394 437 c 1
EndSplineSet
EndChar

StartChar: d
Encoding: 100 100 41
Width: 648
VWidth: 1155
Flags: HMW
LayerCount: 2
Back
SplineSet
419.141601562 260 m 4
 445.4609375 374 412.470703125 478 321.470703125 478 c 4
 237.470703125 478 157.4609375 374 131.141601562 260 c 4
 104.822265625 146 136.8125 42 220.8125 42 c 4
 311.8125 42 392.822265625 146 419.141601562 260 c 4
448.141601562 260 m 4
 410.741210938 98 311.806640625 -10 190.806640625 -10 c 4
 71.806640625 -10 -8.1064453125 90 31.1416015625 260 c 4
 70.388671875 430 196.245117188 529 315.245117188 529 c 4
 436.245117188 529 485.541992188 422 448.141601562 260 c 4
551.813476562 55 m 5
 539.116210938 0 l 5
 449.116210938 0 l 5
 461.813476562 55 l 5
 551.813476562 55 l 5
539.193359375 780 m 5
 526.495117188 725 l 5
 436.495117188 725 l 5
 449.193359375 780 l 5
 539.193359375 780 l 5
629.193359375 780 m 5
 449.116210938 0 l 5
 359.116210938 0 l 5
 539.193359375 780 l 5
 629.193359375 780 l 5
EndSplineSet
Fore
SplineSet
616 163 m 1
 578 63 509 -10 438 -10 c 0
 391 -10 367 13 367 63 c 0
 367 68 368 79 369 85 c 2
 391.076171875 182 l 1
 416 263 l 1
 431.358398438 359 l 1
 526 780 l 1
 618 780 l 1
 457 89 l 2
 455.68359375 83.349609375 455 76 455 71 c 0
 455 60 460 52 473 52 c 0
 507 52 555 110 578 176 c 1
 616 163 l 1
528 780 m 1
 528 725 l 1
 428 725 l 1
 428 780 l 1
 528 780 l 1
452 320 m 0
 452 182 323 -10 182 -10 c 0
 93 -10 20 40 20 180 c 0
 20 380 203 529 312 529 c 4
 433 529 452 442 452 320 c 0
418 320 m 0
 418 404 411 478 320 478 c 4
 236 478 120 324 120 180 c 0
 120 96 146 42 210 42 c 0
 301 42 418 206 418 320 c 0
EndSplineSet
EndChar

StartChar: e
Encoding: 101 101 42
Width: 530
VWidth: 1155
Flags: HMW
LayerCount: 2
Back
SplineSet
-48.2314453125 250 m 5
 57.3857421875 270 l 5
 28.7578125 146 39.0556640625 39 148.055664062 39 c 4
 231.055664062 39 297.522460938 93 340.991210938 173 c 5
 391.991210938 173 l 5
 341.2890625 66 255.743164062 -10 124.743164062 -10 c 4
 -26.2568359375 -10 -80.552734375 110 -48.2314453125 250 c 5
41.2353515625 304 m 5
 365.235351562 304 l 5
 355.307617188 261 l 5
 31.3076171875 261 l 5
 41.2353515625 304 l 5
400.307617188 261 m 5
 355.307617188 261 l 5
 362.002929688 290 l 5
 407.002929688 290 l 5
 400.307617188 261 l 5
411.307617188 261 m 5
 314.307617188 261 l 5
 338.087890625 364 345.252929688 486 246.252929688 486 c 4
 137.252929688 486 81.396484375 374 57.3857421875 270 c 5
 -48.2314453125 250 l 5
 -11.29296875 410 95.4111328125 530 256.411132812 530 c 4
 425.411132812 530 443.3984375 400 411.307617188 261 c 5
EndSplineSet
Fore
SplineSet
500 412 m 1
 500 232 212 212 101 212 c 0
 40.0712890625 212 99 256 99 256 c 1
 188 256 404 278 404 412 c 1
 500 412 l 1
20 170 m 1
 122 170 l 1
 122 96 148 39 217 39 c 4
 300 39 362 113 397 173 c 1
 451 173 l 1
 410 86 326 -10 205 -10 c 4
 94 -10 20 40 20 170 c 1
500 412 m 1
 404 412 l 1
 404 469 381 483 337 483 c 4
 228 483 122 334 122 170 c 1
 20 170 l 1
 20 370 186 530 337 530 c 4
 449 530 500 494 500 412 c 1
EndSplineSet
EndChar

StartChar: f
Encoding: 102 102 43
Width: 375
VWidth: 1155
Flags: HMW
LayerCount: 2
Back
SplineSet
550.56640625 679 m 5
 463.5703125 718 l 5
 466.340820312 730 451.803710938 745 399.803710938 745 c 4
 319.803710938 745 275.104492188 677 245.784179688 550 c 5
 160.86328125 572 l 5
 191.107421875 703 278.193359375 790 408.193359375 790 c 4
 509.193359375 790 563.725585938 736 550.56640625 679 c 5
429.411132812 661 m 4
 436.336914062 691 458.953125 698 463.5703125 718 c 5
 550.56640625 679 l 5
 540.639648438 636 511.329101562 613 476.329101562 613 c 4
 441.329101562 613 422.946289062 633 429.411132812 661 c 4
-48.4951171875 55 m 5
 41.5048828125 55 l 5
 28.806640625 0 l 5
 -61.193359375 0 l 5
 -48.4951171875 55 l 5
131.504882812 55 m 5
 251.504882812 55 l 5
 238.806640625 0 l 5
 118.806640625 0 l 5
 131.504882812 55 l 5
58.8583984375 520 m 5
 378.858398438 520 l 5
 366.161132812 465 l 5
 46.1611328125 465 l 5
 58.8583984375 520 l 5
160.86328125 572 m 5
 245.784179688 550 l 5
 118.806640625 0 l 5
 28.806640625 0 l 5
 160.86328125 572 l 5
EndSplineSet
Fore
SplineSet
150 572 m 1
 240 550 l 1
 95 -150 l 5
 5 -150 l 5
 150 572 l 1
555 679 m 1
 459 718 l 1
 459 730 441 745 389 745 c 0
 309 745 270 677 240 550 c 1
 150 572 l 1
 180 703 257 790 387 790 c 0
 488 790 555 736 555 679 c 1
438 661 m 0
 438 691 459 698 459 718 c 1
 555 679 l 1
 555 636 531 613 496 613 c 0
 461 613 438 633 438 661 c 0
50 520 m 1
 370 520 l 1
 370 465 l 1
 50 465 l 1
 50 520 l 1
EndSplineSet
EndChar

StartChar: g
Encoding: 103 103 44
Width: 539
VWidth: 1155
Flags: HMW
LayerCount: 2
Back
SplineSet
538.885742188 613.513671875 m 5
 453.326171875 583.107421875 l 5
 446.254882812 590.178710938 437.76953125 588.764648438 429.284179688 580.279296875 c 4
 403.12109375 554.116210938 391.807617188 506.033203125 439.18359375 430.373046875 c 5
 399.5859375 421.887695312 l 5
 349.380859375 500.375976562 372.715820312 576.036132812 401 604.321289062 c 4
 451.204101562 654.525390625 502.116210938 650.283203125 538.885742188 613.513671875 c 5
475.24609375 534.317382812 m 4
 452.619140625 556.944335938 464.639648438 571.793945312 453.326171875 583.107421875 c 5
 538.885742188 613.513671875 l 5
 562.927734375 589.471679688 561.513671875 558.359375 540.299804688 537.145507812 c 4
 520.500976562 517.346679688 492.923828125 516.639648438 475.24609375 534.317382812 c 4
158.912109375 22 m 5
 64.9091796875 -4 47.671875 -70 40.2841796875 -102 c 4
 24.5849609375 -170 64.658203125 -213 170.658203125 -213 c 4
 254.658203125 -213 351.5078125 -179 368.129882812 -107 c 5
 444.901367188 -82 l 5
 419.275390625 -193 303.806640625 -260 143.806640625 -260 c 4
 0.806640625 -260 -81.9580078125 -220 -62.333984375 -135 c 4
 -41.3251953125 -44 61.603515625 12 106.603515625 12 c 5
 158.912109375 22 l 5
20.2255859375 84 m 5
 93.3046875 106 l 5
 84.7626953125 69 126.762695312 69 181.762695312 69 c 4
 206.762695312 69 264.993164062 70 292.993164062 70 c 4
 387.993164062 70 476.299804688 54 444.901367188 -82 c 5
 368.129882812 -107 l 5
 380.596679688 -53 356.754882812 -9 291.754882812 -9 c 4
 270.754882812 -9 199.754882812 -9 177.754882812 -9 c 4
 87.7548828125 -9 -1.013671875 -8 20.2255859375 84 c 5
234.927734375 178 m 5
 191.927734375 178 101.154296875 140 93.3046875 106 c 5
 20.2255859375 84 l 5
 35.0009765625 148 126.313476562 197 241.313476562 197 c 5
 234.927734375 178 l 5
642.18359375 439 m 5
 569.1875 478 l 5
 571.49609375 488 565.650390625 493 553.650390625 493 c 4
 516.650390625 493 468.6484375 467 428.5625 380 c 5
 399.641601562 402 l 5
 440.650390625 493 519.193359375 530 559.193359375 530 c 4
 630.193359375 530 654.189453125 491 642.18359375 439 c 5
538.64453125 428 m 4
 546.032226562 460 565.494140625 462 569.1875 478 c 5
 642.18359375 439 l 5
 634.333984375 405 606.486328125 384 576.486328125 384 c 4
 548.486328125 384 532.873046875 403 538.64453125 428 c 4
73.482421875 345 m 4
 98.8779296875 455 194.193359375 530 315.193359375 530 c 4
 436.193359375 530 496.877929688 455 471.482421875 345 c 4
 446.086914062 235 350.771484375 160 229.771484375 160 c 4
 108.771484375 160 48.0869140625 235 73.482421875 345 c 4
168.482421875 345 m 4
 151.3984375 271 160.006835938 200 239.006835938 200 c 4
 318.006835938 200 359.3984375 271 376.482421875 345 c 4
 393.56640625 419 384.958007812 490 305.958007812 490 c 4
 226.958007812 490 185.56640625 419 168.482421875 345 c 4
EndSplineSet
Fore
SplineSet
155 285 m 0
 155 241 165 200 234 200 c 0
 323 200 383 301 383 405 c 0
 383 439 383 490 314 490 c 0
 225 490 155 389 155 285 c 0
60 295 m 0
 60 415 183 530 314 530 c 0
 425 530 478 485 478 395 c 0
 478 275 365 160 234 160 c 0
 123 160 60 205 60 295 c 0
220 178 m 1
 177 178 95 140 95 96 c 1
 17 64 l 1
 17 138 107 197 222 197 c 1
 220 178 l 1
17 64 m 1
 95 96 l 1
 95 69 137 69 192 69 c 0
 217 69 255 70 283 70 c 0
 378 70 440 44 440 -62 c 1
 369 -67 l 1
 369 -23 345 -9 280 -9 c 0
 259 -9 198 -9 176 -9 c 0
 86 -9 17 -8 17 64 c 1
150 22 m 1
 62 -4 30 -100 30 -142 c 0
 30 -188 85 -205 131 -205 c 4
 245 -205 369 -152 369 -67 c 1
 440 -62 l 1
 440 -173 290 -260 120 -260 c 0
 17 -260 -65 -240 -65 -155 c 0
 -65 -64 45 12 90 12 c 1
 150 22 l 1
470 588 m 0
 446 588 419 533 399 462 c 1
 370 484 l 1
 400 565 430 642 500 642 c 0
 541 642 574 613 574 571 c 0
 574 537 551 516 521 516 c 0
 493 516 473 535 473 560 c 0
 473 578 477.071289062 588 470 588 c 0
EndSplineSet
EndChar

StartChar: h
Encoding: 104 104 45
Width: 618
VWidth: 1155
Flags: HMW
LayerCount: 2
Back
SplineSet
427.612304688 358 m 5
 520.151367188 369 l 5
 434.9609375 0 l 5
 344.9609375 0 l 5
 427.612304688 358 l 5
427.612304688 358 m 5
 444.696289062 432 425.162109375 473 359.162109375 473 c 4
 261.162109375 473 179.076171875 386 155.296875 283 c 5
 126.296875 283 l 5
 149.845703125 385 232.321289062 530 395.321289062 530 c 4
 522.321289062 530 544.854492188 476 520.151367188 369 c 5
 427.612304688 358 l 5
447.659179688 55 m 5
 537.659179688 55 l 5
 524.9609375 0 l 5
 434.9609375 0 l 5
 447.659179688 55 l 5
268.659179688 55 m 5
 358.659179688 55 l 5
 345.9609375 0 l 5
 255.9609375 0 l 5
 268.659179688 55 l 5
102.659179688 55 m 5
 192.659179688 55 l 5
 179.9609375 0 l 5
 89.9609375 0 l 5
 102.659179688 55 l 5
180.0390625 780 m 5
 270.0390625 780 l 5
 89.9609375 0 l 5
 -0.0390625 0 l 5
 180.0390625 780 l 5
90.0390625 780 m 5
 180.0390625 780 l 5
 167.340820312 725 l 5
 77.3408203125 725 l 5
 90.0390625 780 l 5
-77.3408203125 55 m 5
 12.6591796875 55 l 5
 -0.0390625 0 l 5
 -90.0390625 0 l 5
 -77.3408203125 55 l 5
EndSplineSet
Fore
SplineSet
588 163 m 5
 550 63 481 -10 410 -10 c 4
 363 -10 339 13 339 63 c 4
 339 68 340.720703125 83.5244140625 343 92 c 6
 407 330 l 5
 497 341 l 5
 431 96 l 6
 428.475585938 86.6279296875 427 76 427 71 c 4
 427 60 432 52 445 52 c 4
 479 52 527 110 550 176 c 5
 588 163 l 5
497 341 m 5
 407 330 l 5
 432 414 442 476 378 476 c 4
 287 476 158 317 127 183 c 1
 98 183 l 1
 151 395 270 529 391 529 c 4
 480 529 532 481 497 341 c 5
85 780 m 1
 180 780 l 1
 180 725 l 1
 85 725 l 1
 85 780 l 1
180 780 m 1
 270 780 l 1
 90 0 l 1
 0 0 l 1
 180 780 l 1
EndSplineSet
EndChar

StartChar: i
Encoding: 105 105 46
Width: 309
VWidth: 1155
Flags: HMW
LayerCount: 2
Back
SplineSet
156.877929688 700 m 4
 164.49609375 733 197.729492188 760 230.729492188 760 c 4
 263.729492188 760 284.49609375 733 276.877929688 700 c 4
 269.258789062 667 236.025390625 640 203.025390625 640 c 4
 170.025390625 640 149.258789062 667 156.877929688 700 c 4
-62.0322265625 55 m 5
 27.9677734375 55 l 5
 15.2705078125 0 l 5
 -74.7294921875 0 l 5
 -62.0322265625 55 l 5
117.967773438 55 m 5
 207.967773438 55 l 5
 195.270507812 0 l 5
 105.270507812 0 l 5
 117.967773438 55 l 5
45.3212890625 520 m 5
 135.321289062 520 l 5
 122.624023438 465 l 5
 32.6240234375 465 l 5
 45.3212890625 520 l 5
135.321289062 520 m 5
 225.321289062 520 l 5
 105.270507812 0 l 5
 15.2705078125 0 l 5
 135.321289062 520 l 5
EndSplineSet
Fore
SplineSet
279 163 m 1
 241 63 172 -10 101 -10 c 0
 54 -10 30 13 30 63 c 0
 30 68 31 79 32 85 c 2
 131 520 l 1
 223 520 l 1
 120 89 l 2
 118.63962296 83.3075485044 118 76 118 71 c 0
 118 60 123 52 136 52 c 0
 170 52 218 110 241 176 c 1
 279 163 l 1
146 700 m 0
 146 733 173 760 206 760 c 0
 239 760 266 733 266 700 c 0
 266 667 239 640 206 640 c 0
 173 640 146 667 146 700 c 0
33 520 m 5
 133 520 l 1
 133 465 l 1
 33 465 l 1
 33 520 l 5
EndSplineSet
EndChar

StartChar: j
Encoding: 106 106 47
Width: 300
VWidth: 1155
Flags: HMW
LayerCount: 2
Back
SplineSet
183.890625 700 m 4
 191.509765625 733 224.743164062 760 257.743164062 760 c 4
 290.743164062 760 311.509765625 733 303.890625 700 c 4
 296.272460938 667 263.0390625 640 230.0390625 640 c 4
 197.0390625 640 176.272460938 667 183.890625 700 c 4
-79.5751953125 -125 m 4
 -87.65625 -160 -106.424804688 -159 -111.041992188 -179 c 5
 -200.0390625 -140 l 5
 -191.265625 -102 -159.646484375 -69 -124.646484375 -69 c 4
 -90.646484375 -69 -71.95703125 -92 -79.5751953125 -125 c 4
-200.0390625 -140 m 5
 -111.041992188 -179 l 5
 -114.043945312 -192 -113.584960938 -216 -76.5849609375 -216 c 4
 34.4150390625 -216 42.974609375 -10 69.29296875 104 c 5
 137.822265625 11 l 5
 103.192382812 -139 54.2568359375 -260 -86.7431640625 -260 c 4
 -175.743164062 -260 -214.352539062 -202 -200.0390625 -140 c 5
75.333984375 520 m 5
 165.333984375 520 l 5
 152.63671875 465 l 5
 62.63671875 465 l 5
 75.333984375 520 l 5
165.333984375 520 m 5
 255.333984375 520 l 5
 137.822265625 11 l 5
 69.29296875 104 l 5
 165.333984375 520 l 5
EndSplineSet
Fore
SplineSet
180 700 m 0
 180 733 207 760 240 760 c 0
 273 760 300 733 300 700 c 0
 300 667 273 640 240 640 c 0
 207 640 180 667 180 700 c 0
-73 -125 m 0
 -73 -160 -102 -167 -102 -187 c 1
 -200 -143 l 5
 -200 -105 -171 -69 -131 -69 c 0
 -97 -69 -73 -92 -73 -125 c 0
-200 -143 m 5
 -102 -187 l 1
 -102 -200 -96 -216 -69 -216 c 0
 22 -216 43 -10 73 104 c 1
 143 11 l 1
 103 -139 62 -260 -79 -260 c 0
 -168 -260 -200 -205 -200 -143 c 5
73 520 m 1
 163 520 l 1
 163 465 l 1
 73 465 l 1
 73 520 l 1
163 520 m 1
 253 520 l 1
 143 11 l 1
 73 104 l 1
 163 520 l 1
EndSplineSet
EndChar

StartChar: k
Encoding: 107 107 48
Width: 592
VWidth: 1155
Flags: HMW
LayerCount: 2
Back
SplineSet
549 163 m 5
 511 63 452 -10 371 -10 c 4
 324 -10 300 13 300 63 c 4
 300 68 301 79 302 85 c 6
 401 520 l 5
 493 520 l 5
 390 89 l 6
 388.639648438 83.3076171875 388 76 388 71 c 4
 388 60 393 52 406 52 c 4
 440 52 488 110 511 176 c 5
 549 163 l 5
261.659179688 55 m 1
 498.659179688 55 l 1
 485.9609375 0 l 1
 248.9609375 0 l 1
 261.659179688 55 l 1
579.315429688 465 m 1
 306.315429688 465 l 1
 319.012695312 520 l 1
 592.012695312 520 l 1
 579.315429688 465 l 1
477.9609375 0 m 1
 364.9609375 0 l 1
 149.14453125 291 l 1
 242.224609375 326 l 1
 477.9609375 0 l 1
219.604492188 280 m 1
 149.14453125 291 l 1
 494.012695312 520 l 1
 569.012695312 520 l 1
 219.604492188 280 l 1
-77.3408203125 55 m 1
 12.6591796875 55 l 1
 -0.0390625 0 l 1
 -90.0390625 0 l 1
 -77.3408203125 55 l 1
102.659179688 55 m 1
 182.659179688 55 l 1
 169.9609375 0 l 1
 89.9609375 0 l 1
 102.659179688 55 l 1
90.0390625 780 m 1
 180.0390625 780 l 1
 167.340820312 725 l 1
 77.3408203125 725 l 1
 90.0390625 780 l 1
180.0390625 780 m 1
 270.0390625 780 l 1
 89.9609375 0 l 1
 -0.0390625 0 l 1
 180.0390625 780 l 1
EndSplineSet
Fore
SplineSet
549 163 m 1
 505 43 427 -10 365 -10 c 4
 317.6953125 -10 301.005859375 13.5537109375 301.005859375 63.38671875 c 0
 301.005859375 68.5849609375 301.588867188 79.140625 303 85 c 2
 312 160 l 2
 319.07421875 218.951171875 307 298 213 298 c 0
 172 298 154 274 145 240 c 1
 116 240 l 1
 153 342 215 339 236 339 c 0
 305 339 412.396484375 274.959960938 399 141 c 2
 392 77 l 2
 391.49609375 74.7314453125 391.225585938 70.548828125 391.225585938 68.5361328125 c 0
 391.225585938 57.1416015625 397.619140625 52 411 52 c 0
 428 52 482 90 511 176 c 1
 549 163 l 1
451 428 m 0
 451 460 470 462 470 478 c 1
 552 439 l 1
 552 405 529 384 499 384 c 0
 471 384 451 403 451 428 c 0
90 780 m 1
 180 780 l 1
 180 725 l 1
 90 725 l 1
 90 780 l 1
180 780 m 1
 270 780 l 1
 90 0 l 1
 0 0 l 1
 180 780 l 1
118 343 m 1
 160 324 l 1
 160 314 167 299 209 299 c 0
 246 299 292.526367188 303.568359375 318 392 c 0
 343.373046875 480.08203125 398 530 458 530 c 0
 519 530 552 491 552 439 c 1
 470 478 l 1
 470 488 463 490 451 490 c 0
 416 490 377.950195312 454.78125 355 370 c 0
 329.963867188 277.51171875 252 262 212 262 c 0
 141 262 118 291 118 343 c 1
EndSplineSet
EndChar

StartChar: l
Encoding: 108 108 49
Width: 299
VWidth: 1155
Flags: HMW
LayerCount: 2
Back
SplineSet
-79.3408203125 55 m 5
 10.6591796875 55 l 5
 -2.0390625 0 l 5
 -92.0390625 0 l 5
 -79.3408203125 55 l 5
100.659179688 55 m 5
 190.659179688 55 l 5
 177.9609375 0 l 5
 87.9609375 0 l 5
 100.659179688 55 l 5
88.0390625 780 m 5
 178.0390625 780 l 5
 165.340820312 725 l 5
 75.3408203125 725 l 5
 88.0390625 780 l 5
178.0390625 780 m 5
 268.0390625 780 l 5
 87.9609375 0 l 5
 -2.0390625 0 l 5
 178.0390625 780 l 5
EndSplineSet
Fore
SplineSet
269 163 m 1
 231 63 162 -10 91 -10 c 4
 44 -10 20 13 20 63 c 0
 20 68 20.7268095466 79.0612928515 22 85 c 2
 171 780 l 1
 263 780 l 1
 110 89 l 2
 108.735808858 83.2904831411 108 76 108 71 c 0
 108 60 113 52 126 52 c 0
 160 52 208 110 231 176 c 1
 269 163 l 1
73 780 m 1
 173 780 l 1
 173 725 l 1
 73 725 l 1
 73 780 l 1
EndSplineSet
EndChar

StartChar: m
Encoding: 109 109 50
Width: 880
VWidth: 1155
Flags: HMW
LayerCount: 2
Back
SplineSet
738.517578125 55 m 5
 819.517578125 55 l 5
 806.8203125 0 l 5
 725.8203125 0 l 5
 738.517578125 55 l 5
555.517578125 55 m 5
 648.517578125 55 l 5
 635.8203125 0 l 5
 542.8203125 0 l 5
 555.517578125 55 l 5
718.470703125 358 m 5
 811.010742188 369 l 5
 725.8203125 0 l 5
 635.8203125 0 l 5
 718.470703125 358 l 5
262.517578125 55 m 5
 342.517578125 55 l 5
 329.8203125 0 l 5
 249.8203125 0 l 5
 262.517578125 55 l 5
718.470703125 358 m 5
 735.5546875 432 726.020507812 473 670.020507812 473 c 4
 562.020507812 473 508.934570312 386 485.155273438 283 c 5
 446.155273438 283 l 5
 472.012695312 395 563.1796875 530 706.1796875 530 c 4
 813.1796875 530 835.712890625 476 811.010742188 369 c 5
 718.470703125 358 l 5
432.517578125 55 m 5
 513.517578125 55 l 5
 500.8203125 0 l 5
 419.8203125 0 l 5
 432.517578125 55 l 5
412.470703125 358 m 5
 505.010742188 369 l 5
 419.8203125 0 l 5
 329.8203125 0 l 5
 412.470703125 358 l 5
126.517578125 55 m 5
 219.517578125 55 l 5
 206.8203125 0 l 5
 113.8203125 0 l 5
 126.517578125 55 l 5
143.87109375 520 m 5
 233.87109375 520 l 5
 113.8203125 0 l 5
 23.8203125 0 l 5
 143.87109375 520 l 5
63.87109375 520 m 5
 143.87109375 520 l 5
 131.173828125 465 l 5
 51.173828125 465 l 5
 63.87109375 520 l 5
-43.482421875 55 m 5
 36.517578125 55 l 5
 23.8203125 0 l 5
 -56.1796875 0 l 5
 -43.482421875 55 l 5
412.470703125 358 m 5
 429.5546875 432 420.020507812 473 364.020507812 473 c 4
 266.020507812 473 202.934570312 386 179.155273438 283 c 5
 150.155273438 283 l 5
 176.012695312 395 257.1796875 530 400.1796875 530 c 4
 507.1796875 530 529.712890625 476 505.010742188 369 c 5
 412.470703125 358 l 5
EndSplineSet
Fore
SplineSet
850 163 m 5
 812 63 743 -10 672 -10 c 4
 625 -10 601 13 601 63 c 4
 601 68 602.720703125 83.5244140625 605 92 c 6
 669 330 l 5
 759 341 l 5
 693 96 l 6
 690.475585938 86.6279296875 689 76 689 71 c 4
 689 60 694 52 707 52 c 4
 741 52 789 110 812 176 c 5
 850 163 l 5
399 330 m 1
 489 341 l 1
 407 0 l 1
 317 0 l 1
 399 330 l 1
759 341 m 5
 669 330 l 5
 689 414 724 478 660 478 c 4
 569 478 479 297 444 153 c 1
 405 153 l 1
 462 345 548 529 669 529 c 4
 778 529 794 481 759 341 c 5
50 520 m 1
 145 520 l 1
 145 465 l 1
 50 465 l 1
 50 520 l 1
145 520 m 1
 235 520 l 1
 115 0 l 1
 25 0 l 1
 145 520 l 1
479 331 m 1
 399 330 l 1
 416 414 434 478 378 478 c 0
 287 478 185 297 150 153 c 1
 121 153 l 1
 158 325 270 529 391 529 c 0
 490 529 514 471 479 331 c 1
EndSplineSet
EndChar

StartChar: n
Encoding: 110 110 51
Width: 633
VWidth: 1155
Flags: HMW
LayerCount: 2
Back
SplineSet
471.517578125 55 m 5
 561.517578125 55 l 5
 548.8203125 0 l 5
 458.8203125 0 l 5
 471.517578125 55 l 5
291.517578125 55 m 5
 381.517578125 55 l 5
 368.8203125 0 l 5
 278.8203125 0 l 5
 291.517578125 55 l 5
451.470703125 358 m 5
 544.010742188 369 l 5
 458.8203125 0 l 5
 368.8203125 0 l 5
 451.470703125 358 l 5
126.517578125 55 m 5
 216.517578125 55 l 5
 203.8203125 0 l 5
 113.8203125 0 l 5
 126.517578125 55 l 5
143.87109375 520 m 5
 233.87109375 520 l 5
 113.8203125 0 l 5
 23.8203125 0 l 5
 143.87109375 520 l 5
53.87109375 520 m 5
 143.87109375 520 l 5
 131.173828125 465 l 5
 41.173828125 465 l 5
 53.87109375 520 l 5
-53.482421875 55 m 5
 36.517578125 55 l 5
 23.8203125 0 l 5
 -66.1796875 0 l 5
 -53.482421875 55 l 5
451.470703125 358 m 5
 468.5546875 432 449.020507812 473 383.020507812 473 c 4
 285.020507812 473 202.934570312 386 179.155273438 283 c 5
 150.155273438 283 l 5
 173.704101562 385 256.1796875 530 419.1796875 530 c 4
 546.1796875 530 568.712890625 476 544.010742188 369 c 5
 451.470703125 358 l 5
EndSplineSet
Fore
SplineSet
603 163 m 5
 565 63 496 -10 425 -10 c 4
 378 -10 354 13 354 63 c 4
 354 68 355.720703125 83.5244140625 358 92 c 6
 422 330 l 5
 512 341 l 5
 446 96 l 6
 443.475585938 86.6279296875 442 76 442 71 c 4
 442 60 447 52 460 52 c 4
 494 52 542 110 565 176 c 5
 603 163 l 5
50 520 m 1
 145 520 l 1
 145 465 l 1
 50 465 l 1
 50 520 l 1
145 520 m 1
 235 520 l 1
 115 0 l 1
 25 0 l 1
 145 520 l 1
512 341 m 5
 422 330 l 5
 447 414 457 476 393 476 c 4
 302 476 181 287 150 153 c 1
 121 153 l 1
 174 365 285 529 406 529 c 4
 495 529 547 481 512 341 c 5
EndSplineSet
EndChar

StartChar: o
Encoding: 111 111 52
Width: 568
VWidth: 1155
Flags: HMW
LayerCount: 2
Back
SplineSet
152.30859375 270 m 4
 123.680664062 146 123.0546875 35 232.0546875 35 c 4
 341.0546875 35 391.680664062 146 415.69140625 250 c 4
 444.319335938 374 444.9453125 485 335.9453125 485 c 4
 226.9453125 485 176.319335938 374 152.30859375 270 c 4
42.69140625 250 m 4
 79.6298828125 410 185.333984375 530 346.333984375 530 c 4
 507.333984375 530 557.629882812 410 525.30859375 270 c 4
 488.370117188 110 382.666015625 -10 221.666015625 -10 c 4
 60.666015625 -10 10.3701171875 110 42.69140625 250 c 4
EndSplineSet
Fore
SplineSet
125 180 m 4
 125 106 150 35 219 35 c 4
 328 35 413 186 413 340 c 4
 413 414 388 485 319 485 c 4
 210 485 125 334 125 180 c 4
20 180 m 4
 20 370 158 530 319 530 c 4
 440 530 518 450 518 340 c 4
 518 150 380 -10 219 -10 c 4
 98 -10 20 70 20 180 c 4
EndSplineSet
EndChar

StartChar: p
Encoding: 112 112 53
Width: 600
VWidth: 1155
Flags: HMW
LayerCount: 2
Back
SplineSet
-130.0390625 -250 m 5
 -117.340820312 -195 l 5
 -27.3408203125 -195 l 5
 -40.0390625 -250 l 5
 -130.0390625 -250 l 5
167.704101562 260 m 4
 141.384765625 146 174.375 42 265.375 42 c 4
 349.375 42 429.384765625 146 455.704101562 260 c 4
 482.0234375 374 450.033203125 478 366.033203125 478 c 4
 275.033203125 478 194.0234375 374 167.704101562 260 c 4
138.704101562 260 m 4
 176.104492188 422 275.0390625 530 396.0390625 530 c 4
 515.0390625 530 594.952148438 430 555.704101562 260 c 4
 516.45703125 90 390.600585938 -9 271.600585938 -9 c 4
 150.600585938 -9 101.303710938 98 138.704101562 260 c 4
35.0322265625 465 m 5
 47.7294921875 520 l 5
 137.729492188 520 l 5
 125.032226562 465 l 5
 35.0322265625 465 l 5
49.9609375 -250 m 5
 62.6591796875 -195 l 5
 152.659179688 -195 l 5
 139.9609375 -250 l 5
 49.9609375 -250 l 5
-40.0390625 -250 m 5
 137.729492188 520 l 5
 227.729492188 520 l 5
 49.9609375 -250 l 5
 -40.0390625 -250 l 5
EndSplineSet
Fore
SplineSet
48 520 m 1
 138 520 l 1
 138 465 l 1
 48 465 l 1
 48 520 l 1
138 520 m 1
 226 520 l 1
 52 -250 l 1
 -40 -250 l 1
 138 520 l 1
128 200 m 4
 128 338 247 530 388 530 c 4
 477 530 550 480 550 340 c 4
 550 140 386 -9 268 -9 c 4
 157 -9 128 78 128 200 c 4
162 200 m 4
 162 116 179 42 260 42 c 4
 344 42 450 196 450 340 c 4
 450 424 424 478 360 478 c 4
 269 478 162 314 162 200 c 4
EndSplineSet
EndChar

StartChar: q
Encoding: 113 113 54
Width: 574
VWidth: 1155
Flags: HMW
LayerCount: 2
Back
SplineSet
297.9609375 -250 m 5
 207.9609375 -250 l 5
 220.659179688 -195 l 5
 310.659179688 -195 l 5
 297.9609375 -250 l 5
415.704101562 260 m 4
 442.0234375 374 409.033203125 478 318.033203125 478 c 4
 234.033203125 478 154.0234375 374 127.704101562 260 c 4
 101.384765625 146 133.375 42 217.375 42 c 4
 308.375 42 389.384765625 146 415.704101562 260 c 4
444.704101562 260 m 4
 407.303710938 98 308.600585938 -9 187.600585938 -9 c 4
 68.6005859375 -9 -11.54296875 90 27.7041015625 260 c 4
 66.9521484375 430 193.0390625 530 312.0390625 530 c 4
 433.0390625 530 482.104492188 422 444.704101562 260 c 4
643.032226562 465 m 5
 553.032226562 465 l 5
 565.729492188 520 l 5
 655.729492188 520 l 5
 643.032226562 465 l 5
477.9609375 -250 m 5
 387.9609375 -250 l 5
 400.659179688 -195 l 5
 490.659179688 -195 l 5
 477.9609375 -250 l 5
387.9609375 -250 m 5
 297.9609375 -250 l 5
 475.729492188 520 l 5
 565.729492188 520 l 5
 387.9609375 -250 l 5
EndSplineSet
Fore
SplineSet
456 520 m 1
 544 520 l 1
 370 -250 l 1
 278 -250 l 1
 374.62890625 168 l 1
 411 256 l 1
 415.545898438 345 l 1
 456 520 l 1
370 -250 m 1
 370 -195 l 1
 460 -195 l 1
 460 -250 l 1
 370 -250 l 1
442 320 m 0
 442 182 333 -10 192 -10 c 4
 103 -10 20 40 20 180 c 0
 20 380 193 529 302 529 c 4
 413 529 442 442 442 320 c 0
408 320 m 0
 408 404 391 478 310 478 c 4
 226 478 120 324 120 180 c 0
 120 96 156 42 220 42 c 4
 311 42 408 206 408 320 c 0
EndSplineSet
EndChar

StartChar: r
Encoding: 114 114 55
Width: 473
VWidth: 1155
Flags: HMW
LayerCount: 2
Back
SplineSet
369.404296875 466 m 5
 371.712890625 476 368.021484375 486 344.021484375 486 c 4
 276.021484375 486 202.934570312 386 179.155273438 283 c 5
 155.155273438 283 l 5
 176.395507812 375 235.1796875 530 376.1796875 530 c 4
 432.1796875 530 475.869140625 494 462.478515625 436 c 5
 369.404296875 466 l 5
-53.482421875 55 m 5
 36.517578125 55 l 5
 23.8203125 0 l 5
 -66.1796875 0 l 5
 -53.482421875 55 l 5
53.87109375 520 m 5
 143.87109375 520 l 5
 131.173828125 465 l 5
 41.173828125 465 l 5
 53.87109375 520 l 5
143.87109375 520 m 5
 233.87109375 520 l 5
 113.8203125 0 l 5
 23.8203125 0 l 5
 143.87109375 520 l 5
126.517578125 55 m 5
 216.517578125 55 l 5
 203.8203125 0 l 5
 113.8203125 0 l 5
 126.517578125 55 l 5
333.70703125 411 m 4
 342.017578125 447 366.633789062 454 369.404296875 466 c 5
 462.478515625 436 l 5
 452.782226562 394 417.932617188 360 382.932617188 360 c 4
 348.932617188 360 326.549804688 380 333.70703125 411 c 4
EndSplineSet
Fore
SplineSet
376 471 m 1
 376 478 370 483 359 483 c 4
 281 483 177 286 157 183 c 1
 133 183 l 5
 153 295 238 530 374 530 c 4
 433 530 473 494 473 436 c 1
 376 471 l 1
55 520 m 1
 145 520 l 1
 145 465 l 1
 55 465 l 1
 55 520 l 1
145 520 m 1
 235 520 l 1
 115 0 l 1
 25 0 l 1
 145 520 l 1
350 411 m 0
 350 455 376 459 376 471 c 1
 473 436 l 1
 473 394 446 360 411 360 c 0
 377 360 350 380 350 411 c 0
EndSplineSet
EndChar

StartChar: s
Encoding: 115 115 56
Width: 481
VWidth: 1155
Flags: HMW
LayerCount: 2
Back
SplineSet
88.7041015625 380 m 5
 172.70703125 406 l 5
 140.384765625 266 477.086914062 360 429.06640625 152 c 5
 341.6796875 133 l 5
 373.30859375 270 43.4541015625 184 88.7041015625 380 c 5
74.4423828125 67 m 21
 31.666015625 -10 l 13
 59.8310546875 112 l 5
 74.4423828125 67 l 21
78.9140625 173 m 5
 31.666015625 -10 l 5
 -18.333984375 -10 l 5
 23.9140625 173 l 5
 78.9140625 173 l 5
56.3681640625 97 m 5
 78.9140625 173 l 5
 59.751953125 90 134.208984375 40 196.208984375 40 c 4
 276.208984375 40 329.905273438 82 341.6796875 133 c 5
 429.06640625 152 l 5
 405.055664062 48 311.204101562 -12 204.204101562 -12 c 4
 95.2041015625 -12 49.904296875 69 56.3681640625 97 c 5
405.557617188 453 m 21
 448.333984375 530 l 13
 420.168945312 408 l 5
 405.557617188 453 l 21
401.778320312 350 m 5
 448.333984375 530 l 5
 498.333984375 530 l 5
 456.778320312 350 l 5
 401.778320312 350 l 5
420.631835938 423 m 5
 401.778320312 350 l 5
 420.940429688 433 350.021484375 481 298.021484375 481 c 4
 235.021484375 481 183.557617188 453 172.70703125 406 c 5
 88.7041015625 380 l 5
 112.71484375 484 203.795898438 532 288.795898438 532 c 4
 396.795898438 532 426.633789062 449 420.631835938 423 c 5
EndSplineSet
Fore
SplineSet
116 152 m 0
 116 109 72 115 72 95 c 1
 0 126 l 1
 0 169 29 203 64 203 c 0
 94 203 116 184 116 152 c 0
354 390 m 0
 354 429 384 426 384 446 c 5
 461 411 l 1
 461 371 439 347 407 347 c 0
 375 347 354 365 354 390 c 0
83 380 m 1
 169 406 l 1
 169 306 424 325 424 152 c 1
 341 133 l 1
 341 250 83 234 83 380 c 1
0 126 m 1
 72 95 l 1
 72 57 130 34 187 34 c 0
 287 34 341 82 341 133 c 1
 424 152 l 1
 424 48 314 -12 187 -12 c 0
 78 -12 0 46 0 126 c 1
461 411 m 1
 384 446 l 5
 384 477 338 487 296 487 c 0
 233 487 169 462 169 406 c 1
 83 380 l 1
 83 489 213 532 296 532 c 0
 394 532 461 487 461 411 c 1
EndSplineSet
EndChar

StartChar: t
Encoding: 116 116 57
Width: 365
VWidth: 1155
Flags: HMW
LayerCount: 2
Back
SplineSet
42.6826171875 520 m 21
 128.682617188 520 171.375 523 212.239257812 700 c 13
 170.682617188 520 l 5
 42.6826171875 520 l 21
170.682617188 520 m 5
 212.239257812 700 l 5
 267.239257812 700 l 5
 225.682617188 520 l 5
 170.682617188 520 l 5
42.6826171875 520 m 5
 372.682617188 520 l 5
 359.984375 465 l 5
 29.984375 465 l 5
 42.6826171875 520 l 5
287.333984375 107 m 5
 253.55859375 43 194.860351562 -12 113.860351562 -12 c 4
 41.8603515625 -12 22.7880859375 31 35.4853515625 86 c 5
 130.333984375 107 l 5
 121.099609375 67 134.174804688 50 161.174804688 50 c 4
 192.174804688 50 224.408203125 77 252.56640625 121 c 5
 287.333984375 107 l 5
220.603515625 498 m 5
 130.333984375 107 l 5
 35.4853515625 86 l 5
 130.603515625 498 l 5
 220.603515625 498 l 5
EndSplineSet
Fore
SplineSet
35.001953125 520 m 1
 340.001953125 520 l 1
 340.001953125 465 l 1
 35.001953125 465 l 1
 35.001953125 520 l 1
280 107 m 5
 251 43 195 -12 114 -12 c 0
 54 -12 30 20 30 60 c 0
 30 68 31 77 33 86 c 2
 157 611 l 1
 193 611 235 638 235 638 c 1
 253 638 l 1
 133 107 l 2
 129 91 126 78 126 69 c 0
 126 57 132 50 147 50 c 0
 178 50 214 77 242 121 c 5
 280 107 l 5
EndSplineSet
Substitution2: "'ss01' Style Set 1 lookup 2-1" uniFFF0
EndChar

StartChar: u
Encoding: 117 117 58
Width: 685
VWidth: 1155
Flags: HMW
LayerCount: 2
Back
SplineSet
180.482421875 465 m 5
 90.482421875 465 l 5
 103.1796875 520 l 5
 193.1796875 520 l 5
 180.482421875 465 l 5
525.482421875 465 m 5
 435.482421875 465 l 5
 448.1796875 520 l 5
 538.1796875 520 l 5
 525.482421875 465 l 5
598.12890625 0 m 5
 508.12890625 0 l 5
 520.826171875 55 l 5
 610.826171875 55 l 5
 598.12890625 0 l 5
200.529296875 162 m 5
 183.4453125 88 200.670898438 37 266.670898438 37 c 4
 364.670898438 37 449.065429688 134 472.844726562 237 c 5
 501.844726562 237 l 5
 478.295898438 135 395.8203125 -10 232.8203125 -10 c 4
 105.8203125 -10 83.287109375 44 107.989257812 151 c 5
 200.529296875 162 l 5
200.529296875 162 m 5
 107.989257812 151 l 5
 193.1796875 520 l 5
 283.1796875 520 l 5
 200.529296875 162 l 5
508.12890625 0 m 5
 418.12890625 0 l 5
 538.1796875 520 l 5
 628.1796875 520 l 5
 508.12890625 0 l 5
EndSplineSet
Fore
SplineSet
20 357 m 1
 58 457 127 530 198 530 c 0
 245 530 269 507 269 457 c 0
 269 452 267.279296875 436.475585938 265 428 c 2
 201 190 l 1
 111 179 l 1
 177 424 l 2
 179.524414062 433.372070312 181 444 181 449 c 0
 181 460 176 468 163 468 c 0
 129 468 81 410 58 344 c 1
 20 357 l 1
655 163 m 5
 617 63 548 -10 477 -10 c 4
 430 -10 406 13 406 63 c 4
 406 68 407 79 408 85 c 6
 507 520 l 5
 599 520 l 5
 496 89 l 6
 494.639648438 83.3076171875 494 76 494 71 c 4
 494 60 499 52 512 52 c 4
 546 52 594 110 617 176 c 5
 655 163 l 5
111 179 m 1
 201 190 l 1
 176 106 166 44 230 44 c 0
 321 44 442 233 473 367 c 5
 502 367 l 5
 449 155 338 -9 217 -9 c 0
 128 -9 76 39 111 179 c 1
EndSplineSet
EndChar

StartChar: v
Encoding: 118 118 59
Width: 511
VWidth: 1155
Flags: HMW
LayerCount: 2
Back
SplineSet
243.482421875 465 m 5
 -27.517578125 465 l 5
 -14.8203125 520 l 5
 256.1796875 520 l 5
 243.482421875 465 l 5
551.482421875 465 m 5
 327.482421875 465 l 5
 340.1796875 520 l 5
 564.1796875 520 l 5
 551.482421875 465 l 5
206.208984375 35 m 5
 130.8203125 -10 l 5
 50.1796875 520 l 5
 150.1796875 520 l 5
 206.208984375 35 l 5
184.8203125 -10 m 5
 130.8203125 -10 l 5
 448.1796875 520 l 5
 505.1796875 520 l 5
 184.8203125 -10 l 5
EndSplineSet
Fore
SplineSet
155 535 m 1
 175 501 l 1
 153 489 120 461 120 413 c 0
 120 320 179 281 179 137 c 0
 179 118 174 79 173 58 c 1
 68 12 l 1
 70 34 87 90 87 110 c 0
 87 207 20 289 20 383 c 0
 20 463 105 511 155 535 c 1
365 423 m 0
 340 423 321 445 321 473 c 0
 321 503 350 529 384 529 c 1
 421 443 l 1
 405 443 397 423 365 423 c 0
68 12 m 1
 269.78125 119.950195312 439 265 439 383 c 0
 439 435 431 443 421 443 c 1
 384 529 l 1
 444 529 491 475 491 384 c 0
 491 234 296.08203125 73.373046875 111 -12 c 1
 68 12 l 1
EndSplineSet
EndChar

StartChar: w
Encoding: 119 119 60
Width: 882
VWidth: 1155
Flags: HMW
LayerCount: 2
Back
SplineSet
519.8203125 -10 m 5
 530.208984375 35 l 5
 597.208984375 35 l 5
 586.8203125 -10 l 5
 519.8203125 -10 l 5
203.8203125 -10 m 5
 214.208984375 35 l 5
 281.208984375 35 l 5
 270.8203125 -10 l 5
 203.8203125 -10 l 5
930.482421875 465 m 5
 676.482421875 465 l 5
 689.1796875 520 l 5
 943.1796875 520 l 5
 930.482421875 465 l 5
597.208984375 35 m 5
 519.8203125 -10 l 5
 481.329101562 473 l 5
 558.1796875 520 l 5
 597.208984375 35 l 5
588.8203125 -10 m 5
 529.8203125 -10 l 5
 802.1796875 520 l 5
 864.1796875 520 l 5
 588.8203125 -10 l 5
366.482421875 465 m 5
 75.482421875 465 l 5
 88.1796875 520 l 5
 379.1796875 520 l 5
 366.482421875 465 l 5
281.208984375 35 m 5
 203.8203125 -10 l 5
 153.1796875 520 l 5
 247.1796875 520 l 5
 281.208984375 35 l 5
272.8203125 -10 m 5
 213.8203125 -10 l 5
 496.1796875 520 l 5
 558.1796875 520 l 5
 272.8203125 -10 l 5
EndSplineSet
Fore
SplineSet
30 357 m 1
 68 457 137 530 208 530 c 0
 255 530 279 507 279 457 c 0
 279 452 277.279296875 436.475585938 275 428 c 2
 211 190 l 1
 121 179 l 1
 187 424 l 2
 189.524414062 433.372070312 191 444 191 449 c 0
 191 460 186 468 173 468 c 0
 139 468 91 410 68 344 c 1
 30 357 l 1
121 179 m 1
 211 190 l 1
 186 106 196 42 260 42 c 0
 351 42 417 173 444 287 c 5
 483 287 l 5
 446 115 358 -9 247 -9 c 0
 158 -9 86 39 121 179 c 1
497 520 m 5
 587 520 l 5
 511 189 l 5
 418 178 l 5
 497 520 l 5
753 413 m 0
 726 413 704 435 704 470 c 0
 704 506 730 529 771 529 c 1
 786 419 l 1
 779 419 787 413 753 413 c 0
568 43 m 1
 710 43 797 295 797 383 c 0
 797 405 796 419 786 419 c 1
 771 529 l 1
 819 529 854 494 854 393 c 0
 854 283 764 -10 559 -10 c 1
 568 43 l 1
418 178 m 5
 511 189 l 5
 491 105 504 43 568 43 c 1
 559 -10 l 1
 470 -10 416 38 418 178 c 5
EndSplineSet
EndChar

StartChar: x
Encoding: 120 120 61
Width: 574
VWidth: 1155
Flags: HMW
LayerCount: 2
Back
SplineSet
260.671875 55 m 5
 491.671875 55 l 5
 478.974609375 0 l 5
 247.974609375 0 l 5
 260.671875 55 l 5
-62.328125 55 m 5
 136.671875 55 l 5
 123.974609375 0 l 5
 -75.025390625 0 l 5
 -62.328125 55 l 5
278.328125 465 m 5
 32.328125 465 l 5
 45.025390625 520 l 5
 291.025390625 520 l 5
 278.328125 465 l 5
586.328125 465 m 5
 392.328125 465 l 5
 405.025390625 520 l 5
 599.025390625 520 l 5
 586.328125 465 l 5
463.974609375 0 m 5
 353.974609375 0 l 5
 90.025390625 520 l 5
 200.025390625 520 l 5
 463.974609375 0 l 5
-0.025390625 0 m 5
 -75.025390625 0 l 5
 514.025390625 520 l 5
 589.025390625 520 l 5
 -0.025390625 0 l 5
EndSplineSet
Fore
SplineSet
271 314 m 1
 331.373046875 412.08203125 386 530 475 530 c 0
 546 530 574 491 574 439 c 1
 492 478 l 1
 492 488 485 490 473 490 c 0
 416 490 363.950195312 382.78125 306 288 c 1
 271 314 l 1
473 428 m 0
 473 460 492 462 492 478 c 1
 574 439 l 1
 574 405 551 384 521 384 c 0
 493 384 473 403 473 428 c 0
281 267 m 1
 220.626953125 168.91796875 136 -10 29 -10 c 0
 -32 -10 -60 29 -60 81 c 1
 22 42 l 1
 22 32 29 30 41 30 c 0
 98 30 188.049804688 198.21875 246 293 c 1
 281 267 l 1
41 92 m 0
 41 60 22 58 22 42 c 1
 -60 81 l 1
 -60 115 -37 136 -7 136 c 0
 21 136 41 117 41 92 c 0
514 109 m 1
 481 19 436 -10 384 -10 c 0
 326.6953125 -10 295.8203125 25.2294921875 283.005859375 73.38671875 c 0
 260.07421875 159.565429688 209.092773438 377.100585938 182.774414062 449.463867188 c 0
 178.879882812 460.171875 174.380859375 473 156 473 c 0
 135 473 107 451 88 395 c 1
 53 409 l 1
 86 499 124 532 186 532 c 0
 243.3046875 532 270.1796875 496.770507812 282.994140625 448.61328125 c 0
 307.046875 358.224609375 347.801757812 169.942382812 383.225585938 72.5361328125 c 0
 387.120117188 61.828125 399.619140625 49 413 49 c 0
 427 49 459 71 478 127 c 1
 514 109 l 1
EndSplineSet
EndChar

StartChar: y
Encoding: 121 121 62
Width: 675
VWidth: 1155
Flags: HMW
LayerCount: 2
Back
SplineSet
63.2841796875 -107 m 4
 54.51171875 -145 13.666015625 -140 7.6630859375 -166 c 5
 -53.2568359375 -131 l 5
 -42.63671875 -85 -6.4033203125 -58 24.5966796875 -58 c 4
 54.5966796875 -58 70.44140625 -76 63.2841796875 -107 c 4
343.377929688 58 m 5
 273.518554688 -67 l 5
 143.0390625 520 l 5
 243.0390625 520 l 5
 343.377929688 58 l 5
694.340820312 465 m 5
 479.340820312 465 l 5
 492.0390625 520 l 5
 707.0390625 520 l 5
 694.340820312 465 l 5
347.340820312 465 m 5
 76.3408203125 465 l 5
 89.0390625 520 l 5
 360.0390625 520 l 5
 347.340820312 465 l 5
51.5048828125 -210 m 5
 90.5048828125 -210 153.29296875 -180.27734375 228.134765625 -60 c 6
 589.0390625 520 l 5
 653.0390625 520 l 5
 262.438476562 -102 l 6
 180.393554688 -232.649414062 97.9609375 -260 39.9609375 -260 c 5
 51.5048828125 -210 l 5
-53.2568359375 -131 m 5
 7.6630859375 -166 l 5
 2.353515625 -189 18.5048828125 -210 51.5048828125 -210 c 5
 39.9609375 -260 l 5
 -37.0390625 -260 -68.724609375 -198 -53.2568359375 -131 c 5
EndSplineSet
Fore
SplineSet
290.005859375 -106.61328125 m 1
 237.07421875 -20.4345703125 187.092773438 377.100585938 159.774414062 449.463867188 c 0
 155.75 460.124023438 152.380859375 472 135 472 c 0
 121 472 89 450 70 394 c 1
 31 409 l 1
 64 499 104 532 166 532 c 0
 223.3046875 532 249.706054688 505.353515625 263.994140625 457.61328125 c 0
 291.046875 367.224609375 304.801757812 59.9423828125 370.225585938 -37.4638671875 c 1
 290.005859375 -106.61328125 l 1
533 414 m 4
 498 414 479 433 479 471 c 4
 479 501 500 539 554 539 c 5
 576 430 l 5
 564 430 567 414 533 414 c 4
50 -205 m 5
 262 -205 586 301 586 409 c 4
 586 425 584 430 576 430 c 5
 554 539 l 5
 622 539 645 496 645 435 c 4
 645 265 295 -260 50 -260 c 5
 50 -205 l 5
38 -107 m 0
 38 -145 -4 -140 -4 -166 c 1
 -80 -141 l 1
 -80 -95 -51 -58 -12 -58 c 0
 18 -58 38 -76 38 -107 c 0
-80 -141 m 1
 -4 -166 l 1
 -4 -189 7 -205 50 -205 c 1
 50 -260 l 1
 -37 -260 -80 -208 -80 -141 c 1
EndSplineSet
EndChar

StartChar: z
Encoding: 122 122 63
Width: 520
VWidth: 1155
Flags: HMW
LayerCount: 2
Back
SplineSet
420.482421875 470 m 5
 529.482421875 470 l 5
 86.517578125 50 l 5
 -21.482421875 50 l 5
 420.482421875 470 l 5
242.517578125 50 m 21
 389.517578125 50 402.751953125 90 431.379882812 214 c 13
 393.517578125 50 l 5
 242.517578125 50 l 21
393.517578125 50 m 5
 431.379882812 214 l 5
 481.379882812 214 l 5
 443.517578125 50 l 5
 393.517578125 50 l 5
113.390625 318 m 5
 63.390625 318 l 5
 98.482421875 470 l 5
 148.482421875 470 l 5
 113.390625 318 l 5
-21.482421875 50 m 5
 443.517578125 50 l 5
 431.974609375 0 l 5
 -33.025390625 0 l 5
 -21.482421875 50 l 5
541.025390625 520 m 5
 529.482421875 470 l 5
 98.482421875 470 l 5
 110.025390625 520 l 5
 541.025390625 520 l 5
113.390625 318 m 13
 148.482421875 470 l 5
 276.482421875 470 l 21
 152.482421875 470 136.708007812 419 113.390625 318 c 13
EndSplineSet
Fore
SplineSet
490 125 m 1
 456 66 378 -10 298 -10 c 0
 224.186523438 -10 177.7578125 39 132 39 c 0
 84 39 6 12 -26 -10 c 1
 -50 20 l 5
 84 82 172 110 222 110 c 4
 275.813476562 110 312.2421875 77 348 77 c 0
 390 77 431 116 454 153 c 1
 490 125 l 1
70 50 m 1
 -50 20 l 1
 430 470 l 1
 550 500 l 1
 70 50 l 1
40 395 m 1
 74 454 142 530 222 530 c 0
 315.813476562 530 322.2421875 471 378 471 c 0
 426 471 494 508 526 530 c 1
 550 500 l 5
 416 450 368 405 308 405 c 0
 244.186523438 405 228.7578125 448 173 448 c 0
 135 448 101 410 79 374 c 1
 40 395 l 1
EndSplineSet
EndChar

StartChar: comma
Encoding: 44 44 65
Width: 215
Flags: HMW
LayerCount: 2
Fore
SplineSet
125 24 m 1
 125 -66 27 -156 -63 -156 c 1
 -63 -116 l 1
 -8 -116 82 -49 76 11 c 1
 92.365234375 16.9150390625 96.7646484375 78.1123046875 125 24 c 1
-11 49 m 0
 -11 82 18 108 56 108 c 0
 95 108 125 77 125 24 c 0
 125 9.2919921875 99.0439453125 28.44140625 91 19.107421875 c 0
 67.5068359375 -8.15625 60.2919921875 -10 42 -10 c 0
 9 -10 -11 16 -11 49 c 0
EndSplineSet
EndChar

StartChar: exclam
Encoding: 33 33 67
Width: 319
Flags: HMW
LayerCount: 2
Back
SplineSet
234 659 m 4
 182 483 125 358 90 208 c 5
 52 208 l 5
 87 358 86 483 116 659 c 4
 118 666 119 672 120 678 c 4
 131 724 151 758 198 758 c 4
 245 758 250 724 239 678 c 4
 238 672 236 666 234 659 c 4
-25 49 m 4
 -17 82 15 108 48 108 c 4
 81 108 101 82 93 49 c 4
 85 16 53 -10 20 -10 c 4
 -13 -10 -33 16 -25 49 c 4
EndSplineSet
Fore
SplineSet
10 50 m 0
 10 83 37 110 70 110 c 0
 103 110 130 83 130 50 c 0
 130 17 103 -10 70 -10 c 0
 37 -10 10 17 10 50 c 0
275 647 m 0
 222 479 169 351 133 205 c 1
 92 205 l 1
 128 351 124 494 160 675 c 0
 168 715 181 759 223 759 c 0
 265 759 285 734 285 702 c 0
 285 684 280 663 275 647 c 0
EndSplineSet
EndChar

StartChar: quotesingle
Encoding: 39 39 70
Width: 199
Flags: HMW
LayerCount: 2
Fore
SplineSet
212 689 m 4
 191 614 143 548 133 488 c 5
 95 488 l 5
 105 548 104 603 109 679 c 4
 112 728 138 758 174 758 c 4
 200 758 216 741 216 714 c 4
 216 706 215 698 212 689 c 4
EndSplineSet
EndChar

StartChar: question
Encoding: 63 63 75
Width: 550
Flags: HMW
LayerCount: 2
Back
SplineSet
616 349 m 5
 676 349 l 5
 643 209 l 5
 583 209 l 5
 616 349 l 5
500 591 m 5
 519 673 613 760 755 760 c 4
 916 760 975 680 945 550 c 5
 849 570 l 5
 866 644 844 718 745 718 c 4
 661 718 625 684 620 662 c 5
 500 591 l 5
620 662 m 5
 613 632 644 631 632 580 c 4
 622 538 585 520 550 520 c 4
 515 520 489 543 500 591 c 5
 620 662 l 5
616 349 m 5
 731 380 825 467 849 570 c 5
 945 550 l 5
 917 430 778 310 607 310 c 5
 616 349 l 5
EndSplineSet
Fore
SplineSet
179 662 m 1
 179 632 210 631 210 580 c 0
 210 538 177 520 142 520 c 0
 107 520 75 543 75 591 c 1
 179 662 l 1
75 591 m 1
 75 683 169 760 321 760 c 0
 452 760 520 700 520 590 c 1
 429 600 l 1
 429 674 380 713 301 713 c 0
 237 713 179 684 179 662 c 1
 75 591 l 1
285 226.01171875 m 1
 255.454101562 199.176757812 221.159179688 196.23046875 201.236328125 196.23046875 c 0
 140.798828125 196.23046875 105 233.051757812 105 285.01171875 c 0
 105 412.845703125 429 432.737304688 429 600 c 1
 520 590 l 1
 520 362.944335938 175.484375 364.557617188 175.484375 283.689453125 c 4
 175.484375 267.388671875 186.681640625 253.1015625 210.245117188 253.1015625 c 4
 224.125976562 253.1015625 252.297851562 255.977539062 275 283.01171875 c 5
 285 226.01171875 l 1
EndSplineSet
Refer: 1 46 N 1 0 0 1 149 0 2
EndChar

StartChar: parenleft
Encoding: 40 40 76
Width: 445
Flags: HMW
LayerCount: 2
Fore
SplineSet
335 -120 m 5
 325 -170 l 5
 142 -108 55 52 55 235 c 4
 55 508 222 730 485 800 c 5
 495 750 l 5
 281 680 170 477 170 235 c 4
 170 83 201 -40 335 -120 c 5
EndSplineSet
EndChar

StartChar: at
Encoding: 64 64 79
Width: 1060
VWidth: 1155
Flags: HMW
LayerCount: 2
Fore
SplineSet
835 -64 m 1
 751 -162 632 -214 469 -214 c 0
 326 -214 65 -112 65 221 c 1
 170 231 l 1
 170 -71 351 -159 495 -159 c 0
 599 -159 706 -123 796 -25 c 1
 835 -64 l 1
802 520 m 1
 730 210 l 1
 640 210 l 1
 712 520 l 1
 802 520 l 1
693 359 m 0
 693 192.828125 584 70 484 70 c 0
 405 70 334 125.583984375 334 230 c 0
 334 380 449 529 568 529 c 0
 649 529 693 461 693 359 c 0
664 346 m 0
 664 387.927734375 650 478 584 478 c 0
 510 478 435 364 435 240 c 0
 435 173.072265625 450 122 514 122 c 0
 575 122 664 218 664 346 c 0
640 210 m 1
 730 210 l 1
 728 197 716 132 763 132 c 0
 864 132 942 271 942 425 c 1
 1005 421 l 1
 1005 261 912 70 741 70 c 0
 652 70 627 148 640 210 c 1
942 425 m 1
 942 602 786 737 602 737 c 0
 358 737 170 503 170 231 c 1
 65 221 l 1
 65 554 312 790 585 790 c 0
 858 790 1005 604 1005 421 c 1
 942 425 l 1
EndSplineSet
EndChar

StartChar: dollar
Encoding: 36 36 80
Width: 660
Flags: HMW
LayerCount: 2
Fore
SplineSet
435 835 m 5
 495 835 l 5
 235 -85 l 5
 175 -85 l 5
 435 835 l 5
95 130 m 1
 6 176 l 1
 6 224 41 252 70 252 c 0
 97 252 127 231 127 194 c 0
 127 158 95 153 95 130 c 1
545 635 m 1
 634 579 l 1
 634 531 599 513 570 513 c 0
 543 513 513 534 513 571 c 0
 513 607 545 612 545 635 c 1
6 176 m 1
 95 130 l 1
 95 101 126 42 270 42 c 0
 406 42 480 121 480 190 c 1
 570 205 l 1
 570 65 451 -10 270 -10 c 0
 74 -10 6 86 6 176 c 1
140 565 m 1
 230 575 l 1
 230 405 570 455 570 205 c 1
 480 190 l 1
 480 390 140 325 140 565 c 1
634 579 m 1
 545 635 l 1
 545 664 514 709 420 709 c 0
 314 709 230 664 230 575 c 1
 140 565 l 1
 140 685 269 760 410 760 c 0
 536 760 634 699 634 579 c 1
EndSplineSet
EndChar

StartChar: numbersign
Encoding: 35 35 81
Width: 660
Flags: HMW
LayerCount: 2
Fore
SplineSet
-30 280 m 1
 620 280 l 1
 620 225 l 1
 -30 225 l 1
 -30 280 l 1
40 540 m 1
 690 540 l 1
 690 485 l 1
 40 485 l 1
 40 540 l 1
528 805 m 5
 585 805 l 1
 345 -55 l 1
 288 -55 l 5
 528 805 l 5
300 805 m 1
 357 805 l 1
 117 -55 l 1
 60 -55 l 1
 300 805 l 1
EndSplineSet
EndChar

StartChar: slash
Encoding: 47 47 82
Width: 520
Flags: HMW
LayerCount: 2
Fore
SplineSet
481 780 m 5
 550 780 l 5
 24 -150 l 5
 -50 -150 l 5
 481 780 l 5
EndSplineSet
EndChar

StartChar: percent
Encoding: 37 37 83
Width: 1000
Flags: HMW
LayerCount: 2
Fore
SplineSet
620 140 m 4
 620 78 634 40 678 40 c 4
 772 40 830 158 830 280 c 4
 830 342 816 380 772 380 c 4
 678 380 620 262 620 140 c 4
515 160 m 4
 515 323 642 430 775 430 c 4
 858 430 935 383 935 260 c 4
 935 97 788 -10 675 -10 c 4
 592 -10 515 37 515 160 c 4
781 750 m 5
 845 750 l 5
 224 0 l 5
 155 0 l 5
 781 750 l 5
170 470 m 4
 170 408 184 370 228 370 c 4
 322 370 380 488 380 610 c 4
 380 672 366 710 322 710 c 4
 228 710 170 592 170 470 c 4
65 490 m 4
 65 653 192 760 325 760 c 4
 408 760 485 713 485 590 c 4
 485 427 338 320 225 320 c 4
 142 320 65 367 65 490 c 4
EndSplineSet
EndChar

StartChar: hyphen
Encoding: 45 45 85
Width: 460
Flags: HMW
LayerCount: 2
Fore
SplineSet
70 415 m 5
 410 415 l 5
 410 360 l 5
 70 360 l 5
 70 415 l 5
EndSplineSet
EndChar

StartChar: plus
Encoding: 43 43 87
Width: 530
Flags: HMW
LayerCount: 2
Fore
SplineSet
186 110 m 5
 286 520 l 5
 344 520 l 1
 244 110 l 1
 186 110 l 5
60 343 m 1
 470 343 l 1
 470 288 l 1
 60 288 l 1
 60 343 l 1
EndSplineSet
EndChar

StartChar: less
Encoding: 60 60 89
Width: 560
Flags: HMW
LayerCount: 2
Back
SplineSet
55 365 m 5
 70 430 l 5
 549 600 l 5
 534 535 l 5
 55 365 l 5
50 345 m 5
 65 410 l 5
 466 240 l 5
 451 175 l 5
 50 345 l 5
EndSplineSet
Fore
SplineSet
60 363 m 5
 60 425 l 5
 550 600 l 1
 550 533 l 1
 60 363 l 5
60 345 m 1
 60 418 l 1
 450 252 l 1
 450 175 l 1
 60 345 l 1
EndSplineSet
EndChar

StartChar: backslash
Encoding: 92 92 91
Width: 520
Flags: HMW
LayerCount: 2
Fore
SplineSet
184 780 m 1
 420 -150 l 5
 351 -150 l 5
 120 780 l 1
 184 780 l 1
EndSplineSet
EndChar

StartChar: bracketleft
Encoding: 91 91 92
Width: 325
Flags: HMW
LayerCount: 2
Fore
SplineSet
195 -150 m 5
 -55 -150 l 1
 -35 -95 l 1
 195 -95 l 5
 195 -150 l 5
385 725 m 1
 145 725 l 1
 145 780 l 1
 385 780 l 1
 385 725 l 1
235 780 m 1
 35 -150 l 1
 -55 -150 l 1
 145 780 l 1
 235 780 l 1
EndSplineSet
EndChar

StartChar: braceleft
Encoding: 123 123 93
Width: 272
VWidth: 1155
Flags: HMW
LayerCount: 2
Back
SplineSet
349.353515625 780 m 5
 338.502929688 733 l 5
 276.502929688 733 239.193359375 710 224.6484375 647 c 4
 207.102539062 571 231.8671875 531 208.780273438 431 c 4
 189.618164062 348 127.845703125 310 49.228515625 290 c 5
 60.771484375 340 l 5
 93.080078125 350 124.234375 355 133.700195312 396 c 4
 148.245117188 459 98.6337890625 504 130.262695312 641 c 4
 150.810546875 730 204.353515625 780 349.353515625 780 c 5
134.646484375 -150 m 5
 -10.353515625 -150 -40.5791015625 -99 -20.0322265625 -10 c 4
 11.5966796875 127 81.986328125 172 96.5302734375 235 c 4
 105.99609375 276 76.919921875 280 49.228515625 290 c 5
 60.771484375 340 l 5
 130.154296875 320 174.612304688 283 155.450195312 200 c 4
 132.36328125 100 89.12890625 60 71.5830078125 -16 c 4
 57.0380859375 -79 83.4970703125 -103 145.497070312 -103 c 5
 134.646484375 -150 l 5
EndSplineSet
Fore
SplineSet
322 780 m 5
 322 733 l 5
 260 733 198 700 198 647 c 4
 198 581 222 571 222 471 c 4
 222 358 159 310 45 290 c 5
 45 340 l 5
 75 350 131 365 131 406 c 4
 131 469 105 494 105 601 c 4
 105 690 157 780 322 780 c 5
152 -150 m 5
 7 -150 -35 -109 -35 -10 c 4
 -35 107 85 172 85 235 c 4
 85 276 75 280 45 290 c 5
 45 340 l 5
 119 320 152 303 152 220 c 4
 152 120 58 50 58 -16 c 4
 58 -79 90 -103 152 -103 c 5
 152 -150 l 5
EndSplineSet
EndChar

StartChar: bar
Encoding: 124 124 96
Width: 300
VWidth: 1155
Flags: HMW
LayerCount: 2
Fore
SplineSet
190 780 m 5
 280 780 l 5
 40 -250 l 5
 -50 -250 l 5
 190 780 l 5
EndSplineSet
EndChar

StartChar: cent
Encoding: 162 162 98
Width: 540
VWidth: 1155
Flags: HMW
LayerCount: 2
Fore
SplineSet
335.25390625 615 m 1
 390.25390625 615 l 1
 210.25390625 -85 l 5
 155.25390625 -85 l 5
 335.25390625 615 l 1
EndSplineSet
Refer: 40 99 N 1 0 0 1 0 0 2
EndChar

StartChar: sterling
Encoding: 163 163 99
Width: 530
VWidth: 1155
Flags: HMW
LayerCount: 2
Fore
SplineSet
417.6171875 385 m 1
 404.919921875 330 l 1
 -45.080078125 330 l 1
 -32.3828125 385 l 1
 417.6171875 385 l 1
501.979492188 157 m 1
 468.50390625 12 377.806640625 -30 288.806640625 -30 c 0
 151.806640625 -30 120.659179688 30 57.6591796875 30 c 0
 16.6591796875 30 -2.9580078125 10 -19.8837890625 -20 c 1
 -48.8837890625 -20 l 1
 -11.7998046875 54 25.126953125 97 108.126953125 97 c 0
 208.126953125 97 240.27734375 63 316.27734375 63 c 0
 379.27734375 63 440.666015625 95 454.979492188 157 c 1
 501.979492188 157 l 1
537.567382812 662 m 1
 613.639648438 606 l 1
 602.557617188 558 563.40234375 540 534.40234375 540 c 0
 507.40234375 540 482.25 561 490.791992188 598 c 0
 499.103515625 634 532.2578125 639 537.567382812 662 c 1
613.639648438 606 m 1
 537.567382812 662 l 1
 543.801757812 689 487.49609375 718 413.49609375 718 c 4
 294.49609375 718 239.103515625 634 222.01953125 560 c 1
 108.7109375 550 l 1
 141.032226562 690 262.193359375 760 423.193359375 760 c 4
 575.193359375 760 632.5703125 688 613.639648438 606 c 1
108.7109375 550 m 1
 222.01953125 560 l 1
 199.163085938 461 239.92578125 395 222.611328125 320 c 0
 181.0546875 140 34.826171875 165 -24.8837890625 -20 c 1
 -68.8837890625 -20 l 1
 -55.7939453125 119 108.213867188 197 122.989257812 261 c 0
 149.30859375 375 82.1611328125 435 108.7109375 550 c 1
EndSplineSet
EndChar

StartChar: section
Encoding: 167 167 101
Width: 534
VWidth: 1155
Flags: HMW
LayerCount: 2
Back
SplineSet
101 608 m 5
 185 634 l 5
 158 518 506 538 468 375 c 4
 456 323 421 276 359 240 c 5
 319 260 l 5
 348 282 368 313 375 343 c 4
 405 474 59 426 101 608 c 5
47 102 m 5
 -31 148 l 5
 -20 196 21 224 50 224 c 4
 77 224 103 203 94 166 c 4
 86 130 52 125 47 102 c 5
406 142 m 5
 322 116 l 5
 349 232 -9 212 29 375 c 4
 46 447 86 474 148 510 c 5
 178 490 l 5
 171 478 141 447 132 407 c 4
 102 276 448 324 406 142 c 5
-31 148 m 5
 47 102 l 5
 39 69 115 41 167 41 c 4
 230 41 311 69 322 116 c 5
 406 142 l 5
 382 38 261 -10 156 -10 c 4
 48 -10 -58 32 -31 148 c 5
422 658 m 5
 501 612 l 5
 490 564 448 536 419 536 c 4
 392 536 367 557 376 594 c 4
 384 630 417 635 422 658 c 5
501 612 m 5
 422 658 l 5
 430 691 372 709 320 709 c 4
 257 709 196 681 185 634 c 5
 101 608 l 5
 125 712 226 760 321 760 c 4
 429 760 525 718 501 612 c 5
EndSplineSet
Fore
SplineSet
100.791992188 608 m 5
 184.794921875 634 l 5
 158.013671875 518 505.631835938 538 468 375 c 4
 455.995117188 323 421.14453125 276 358.833007812 240 c 5
 319.450195312 260 l 5
 348.529296875 282 367.686523438 313 374.612304688 343 c 4
 404.85546875 474 58.7744140625 426 100.791992188 608 c 5
46.97265625 102 m 5
 -31.4072265625 148 l 5
 -20.3251953125 196 21.138671875 224 50.138671875 224 c 4
 77.138671875 224 102.291015625 203 93.7490234375 166 c 4
 85.4375 130 52.283203125 125 46.97265625 102 c 5
406.208007812 142 m 5
 322.205078125 116 l 5
 348.986328125 232 -8.6318359375 212 29 375 c 4
 45.6220703125 447 85.85546875 474 148.166992188 510 c 5
 177.549804688 490 l 5
 170.779296875 478 141.622070312 447 132.387695312 407 c 4
 102.14453125 276 448.225585938 324 406.208007812 142 c 5
-31.4072265625 148 m 5
 46.97265625 102 l 5
 39.3544921875 69 114.889648438 41 166.889648438 41 c 4
 229.889648438 41 311.354492188 69 322.205078125 116 c 5
 406.208007812 142 l 5
 382.197265625 38 261.116210938 -10 156.116210938 -10 c 4
 48.1162109375 -10 -58.1875 32 -31.4072265625 148 c 5
422.3359375 658 m 5
 500.715820312 612 l 5
 489.633789062 564 448.169921875 536 419.169921875 536 c 4
 392.169921875 536 367.017578125 557 375.560546875 594 c 4
 383.87109375 630 417.025390625 635 422.3359375 658 c 5
500.715820312 612 m 5
 422.3359375 658 l 5
 429.954101562 691 372.110351562 709 320.110351562 709 c 4
 257.110351562 709 195.645507812 681 184.794921875 634 c 5
 100.791992188 608 l 5
 124.802734375 712 225.883789062 760 320.883789062 760 c 4
 428.883789062 760 525.1875 718 500.715820312 612 c 5
EndSplineSet
EndChar

StartChar: brokenbar
Encoding: 166 166 102
Width: 300
VWidth: 1155
Flags: HMW
LayerCount: 2
Fore
SplineSet
47 166 m 5
 137 166 l 5
 40 -250 l 1
 -50 -250 l 1
 47 166 l 5
190 780 m 1
 280 780 l 1
 193 409.000976562 l 1
 103 409.000976562 l 1
 190 780 l 1
EndSplineSet
EndChar

StartChar: asciitilde
Encoding: 126 126 104
Width: 688
VWidth: 1155
Flags: HMW
LayerCount: 2
Fore
SplineSet
243 437 m 0
 180 437 137 385 137 343 c 1
 80 343 l 1
 90 438 170 510 269 510 c 0
 369 510 369 416 445 416 c 0
 508 416 551 468 551 510 c 1
 608 510 l 1
 598 415 518 343 419 343 c 0
 302 343 306 437 243 437 c 0
EndSplineSet
EndChar

StartChar: copyright
Encoding: 169 169 105
Width: 870
Flags: HMW
LayerCount: 2
Back
SplineSet
27 375 m 4
 76.1748046875 588 293.883789062 760 510.883789062 760 c 4
 727.883789062 760 866.174804688 588 817 375 c 4
 767.825195312 162 550.116210938 -10 333.116210938 -10 c 4
 116.116210938 -10 -22.1748046875 162 27 375 c 4
87 375 m 4
 44.2890625 190 159.428710938 39 344.428710938 39 c 4
 529.428710938 39 714.2890625 190 757 375 c 4
 799.7109375 560 684.571289062 711 499.571289062 711 c 4
 314.571289062 711 129.7109375 560 87 375 c 4
EndSplineSet
Fore
SplineSet
20 285 m 4
 20 538 248 760 515 760 c 4
 692 760 830 638 830 465 c 4
 830 202 602 -10 335 -10 c 4
 158 -10 20 112 20 285 c 4
75 285 m 4
 75 140 200 39 335 39 c 4
 570 39 775 220 775 465 c 4
 775 610 660 711 515 711 c 4
 280 711 75 520 75 285 c 4
EndSplineSet
Refer: 14 67 N 0.6 0 0 0.6 182 150 2
EndChar

StartChar: registered
Encoding: 174 174 106
Width: 870
Flags: HMW
LayerCount: 2
Fore
SplineSet
20 285 m 4
 20 538 248 760 515 760 c 4
 692 760 830 638 830 465 c 4
 830 202 602 -10 335 -10 c 4
 158 -10 20 112 20 285 c 4
75 285 m 4
 75 140 200 39 335 39 c 4
 570 39 775 220 775 465 c 4
 775 610 660 711 515 711 c 4
 280 711 75 520 75 285 c 4
EndSplineSet
Refer: 29 82 N 0.6 0 0 0.6 198 148 2
EndChar

StartChar: guillemotleft
Encoding: 171 171 108
Width: 695
Flags: HMW
LayerCount: 2
Fore
SplineSet
410.900390625 387.5 m 5
 599.403320312 190 l 5
 559.014648438 145 l 5
 282.114257812 375 l 5
 287.885742188 400 l 5
 670.985351562 630 l 5
 690.596679688 585 l 5
 410.900390625 387.5 l 5
130.900390625 387.5 m 5
 319.403320312 190 l 5
 279.014648438 145 l 5
 2.1142578125 375 l 5
 7.8857421875 400 l 5
 390.985351562 630 l 5
 410.596679688 585 l 5
 130.900390625 387.5 l 5
EndSplineSet
EndChar

StartChar: mu
Encoding: 181 181 111
Width: 685
VWidth: 1155
Flags: HMW
LayerCount: 2
Fore
SplineSet
163 -143 m 0
 196 -143 219 -167 219 -201 c 0
 219 -236 176 -260 138 -260 c 5
 109 -162 l 1
 129 -162 128 -143 163 -143 c 0
32 -122 m 1
 149 321 l 1
 199 321 l 1
 82 -119 l 1
 32 -122 l 1
32 -122 m 1
 82 -119 l 1
 72 -156 96 -162 109 -162 c 1
 138 -260 l 5
 66 -260 12 -211 32 -122 c 1
EndSplineSet
Refer: 58 117 N 1 0 0 1 0 0 2
EndChar

StartChar: asciicircum
Encoding: 94 94 113
Width: 545
Flags: HMW
LayerCount: 2
Back
SplineSet
329 770 m 5
 323 743 l 5
 258 743 l 5
 264 770 l 5
 329 770 l 5
250 750 m 5
 329 770 l 5
 475 580 l 5
 436 560 l 5
 250 750 l 5
264 770 m 5
 335 750 l 5
 61 560 l 5
 30 580 l 5
 264 770 l 5
EndSplineSet
Fore
SplineSet
405 770 m 1
 405 743 l 1
 340 743 l 1
 340 770 l 1
 405 770 l 1
330 753 m 5
 405 770 l 1
 555 580 l 1
 520 560 l 1
 330 753 l 5
340 770 m 1
 415 747 l 1
 145 560 l 1
 110 580 l 1
 340 770 l 1
EndSplineSet
EndChar

StartChar: degree
Encoding: 176 176 115
Width: 320
Flags: HMW
LayerCount: 2
Fore
SplineSet
120 680 m 4
 120 746 174 800 240 800 c 4
 306 800 360 746 360 680 c 4
 360 614 306 560 240 560 c 4
 174 560 120 614 120 680 c 4
175 680 m 4
 175 643 203 615 240 615 c 4
 277 615 305 643 305 680 c 4
 305 717 277 745 240 745 c 4
 203 745 175 717 175 680 c 4
EndSplineSet
EndChar

StartChar: onequarter
Encoding: 188 188 119
Width: 1000
Flags: HMW
LayerCount: 2
Fore
SplineSet
701 750 m 1
 765 750 l 1
 304 0 l 1
 235 0 l 1
 701 750 l 1
EndSplineSet
Refer: 6 52 S 0.6 0 0 0.6 535 32 2
Refer: 3 49 N 0.6 0 0 0.6 107 456 2
EndChar

StartChar: onehalf
Encoding: 189 189 120
Width: 1000
Flags: HMW
LayerCount: 2
Fore
SplineSet
701 750 m 1
 765 750 l 1
 304 0 l 1
 235 0 l 1
 701 750 l 1
EndSplineSet
Refer: 4 50 S 0.6 0 0 0.6 576 17 2
Refer: 3 49 N 0.6 0 0 0.6 107 456 2
EndChar

StartChar: threequarters
Encoding: 190 190 121
Width: 1000
Flags: HMW
LayerCount: 2
Fore
SplineSet
701 750 m 1
 765 750 l 1
 304 0 l 1
 235 0 l 1
 701 750 l 1
EndSplineSet
Refer: 6 52 S 0.6 0 0 0.6 535 32 2
Refer: 5 51 N 0.6 0 0 0.6 65 457 2
EndChar

StartChar: grave
Encoding: 96 96 123
Width: 395
Flags: HMW
LayerCount: 2
Fore
SplineSet
250 720 m 6
 231.021484375 720.643554688 215 736 215 755 c 4
 215 774 232.190429688 794.720703125 260 788 c 6
 500 730 l 5
 495 710 l 5
 250 720 l 6
EndSplineSet
EndChar

StartChar: acute
Encoding: 180 180 124
Width: 395
Flags: HMW
LayerCount: 2
Fore
SplineSet
295 720 m 6
 50 710 l 5
 45 730 l 5
 285 788 l 6
 312.809570312 794.720703125 330 774 330 755 c 4
 330 736 313.978515625 720.643554688 295 720 c 6
EndSplineSet
EndChar

StartChar: multiply
Encoding: 215 215 127
Width: 530
Flags: HMW
LayerCount: 2
Fore
SplineSet
390.864257812 150.951171875 m 1
 150.951171875 440.865234375 l 5
 189.134765625 479.048828125 l 5
 429.048828125 189.134765625 l 1
 390.864257812 150.951171875 l 1
100.244140625 189.841796875 m 1
 440.157226562 479.755859375 l 5
 479.048828125 440.865234375 l 5
 139.134765625 150.951171875 l 1
 100.244140625 189.841796875 l 1
EndSplineSet
EndChar

StartChar: cedilla
Encoding: 184 184 128
Width: 550
Flags: HMW
LayerCount: 2
Fore
SplineSet
87 -99.01171875 m 5
 197 40.98828125 l 5
 267 40.98828125 l 5
 157 -99.01171875 l 5
 87 -99.01171875 l 5
87 -99.01171875 m 5
 137 -60 l 5
 248 -60 320 -90 320 -140 c 5
 259 -150 l 5
 259 -116.76171875 212 -99.01171875 87 -99.01171875 c 5
101 -198 m 5
 210 -208 259 -174 259 -150 c 5
 320 -140 l 5
 320 -190 272 -250 101 -240 c 5
 101 -198 l 5
EndSplineSet
EndChar

StartChar: AE
Encoding: 198 198 526
Width: 1197
Flags: HMW
LayerCount: 2
Fore
SplineSet
270 275 m 5
 640 275 l 1
 640 220 l 1
 270 220 l 5
 270 275 l 5
470 55 m 1
 800 55 l 1
 800 0 l 1
 470 0 l 1
 470 55 l 1
-70 55 m 1
 210 55 l 1
 210 0 l 1
 -70 0 l 1
 -70 55 l 1
696 750 m 1
 765 750 l 1
 79 0 l 1
 5 0 l 1
 696 750 l 1
EndSplineSet
Refer: 16 69 N 1 0 0 1 460 0 2
EndChar

StartChar: ae
Encoding: 230 230 529
Width: 736
VWidth: 1155
Flags: HMW
LayerCount: 2
Fore
SplineSet
361 250 m 1
 462 270 l 1
 462 146 497 39 606 39 c 0
 689 39 743 93 768 173 c 1
 819 173 l 1
 793 66 725 -10 594 -10 c 0
 443 -10 361 110 361 250 c 1
438 304 m 1
 762 304 l 1
 762 261 l 1
 438 261 l 1
 438 304 l 1
807 261 m 1
 762 261 l 1
 762 290 l 1
 807 290 l 1
 807 261 l 1
818 261 m 1
 726 261 l 1
 726 364 700 486 601 486 c 0
 492 486 462 374 462 270 c 1
 361 250 l 1
 361 410 440 530 601 530 c 0
 770 530 818 400 818 261 c 1
299 299 m 1
 299 261 l 1
 183 261 142 215 142 138 c 0
 142 71 190 46 240 46 c 0
 308 46 361 79 361 250 c 1
 395 179 l 1
 395 55 326 -10 195 -10 c 4
 106 -10 40 39 40 123 c 0
 40 217 127 299 299 299 c 1
451 367 m 1
 451 271 l 1
 361 273 l 1
 361 377 l 1
 451 367 l 1
70 403 m 1
 70 480 162 530 283 530 c 0
 423 530 451 448 451 367 c 1
 361 367 l 1
 361 434 338 484 258 484 c 0
 204 484 156 465 156 445 c 1
 70 403 l 1
299 299 m 1
 413 299 l 1
 413 261 l 1
 299 261 l 1
 299 299 l 1
184 393 m 0
 184 359 163 340 129 340 c 0
 98 340 70 359 70 403 c 1
 156 445 l 1
 156 427 184 432 184 393 c 0
EndSplineSet
EndChar

StartChar: perthousand
Encoding: 8240 8240 537
Width: 1470
Flags: HMW
LayerCount: 2
Fore
SplineSet
1090 140 m 4
 1090 78 1104 40 1148 40 c 4
 1242 40 1300 158 1300 280 c 4
 1300 342 1286 380 1242 380 c 4
 1148 380 1090 262 1090 140 c 4
985 160 m 4
 985 323 1112 430 1245 430 c 4
 1328 430 1405 383 1405 260 c 4
 1405 97 1258 -10 1145 -10 c 4
 1062 -10 985 37 985 160 c 4
620 140 m 4
 620 78 634 40 678 40 c 4
 772 40 830 158 830 280 c 4
 830 342 816 380 772 380 c 4
 678 380 620 262 620 140 c 4
515 160 m 4
 515 323 642 430 775 430 c 4
 858 430 935 383 935 260 c 4
 935 97 788 -10 675 -10 c 4
 592 -10 515 37 515 160 c 4
781 750 m 5
 845 750 l 5
 224 0 l 5
 155 0 l 5
 781 750 l 5
170 470 m 4
 170 408 184 370 228 370 c 4
 322 370 380 488 380 610 c 4
 380 672 366 710 322 710 c 4
 228 710 170 592 170 470 c 4
65 490 m 4
 65 653 192 760 325 760 c 4
 408 760 485 713 485 590 c 4
 485 427 338 320 225 320 c 4
 142 320 65 367 65 490 c 4
EndSplineSet
EndChar

StartChar: uni2031
Encoding: 8241 8241 538
Width: 1950
Flags: HMW
LayerCount: 2
Fore
SplineSet
1560 140 m 4
 1560 78 1574 40 1618 40 c 4
 1712 40 1770 158 1770 280 c 4
 1770 342 1756 380 1712 380 c 4
 1618 380 1560 262 1560 140 c 4
1455 160 m 4
 1455 323 1582 430 1715 430 c 4
 1798 430 1875 383 1875 260 c 4
 1875 97 1728 -10 1615 -10 c 4
 1532 -10 1455 37 1455 160 c 4
1090 140 m 0
 1090 78 1104 40 1148 40 c 0
 1242 40 1300 158 1300 280 c 0
 1300 342 1286 380 1242 380 c 0
 1148 380 1090 262 1090 140 c 0
985 160 m 0
 985 323 1112 430 1245 430 c 0
 1328 430 1405 383 1405 260 c 0
 1405 97 1258 -10 1145 -10 c 0
 1062 -10 985 37 985 160 c 0
620 140 m 0
 620 78 634 40 678 40 c 0
 772 40 830 158 830 280 c 0
 830 342 816 380 772 380 c 0
 678 380 620 262 620 140 c 0
515 160 m 0
 515 323 642 430 775 430 c 0
 858 430 935 383 935 260 c 0
 935 97 788 -10 675 -10 c 0
 592 -10 515 37 515 160 c 0
781 750 m 1
 845 750 l 1
 224 0 l 1
 155 0 l 1
 781 750 l 1
170 470 m 0
 170 408 184 370 228 370 c 0
 322 370 380 488 380 610 c 0
 380 672 366 710 322 710 c 0
 228 710 170 592 170 470 c 0
65 490 m 0
 65 653 192 760 325 760 c 0
 408 760 485 713 485 590 c 0
 485 427 338 320 225 320 c 0
 142 320 65 367 65 490 c 0
EndSplineSet
EndChar

StartChar: uniFB00
Encoding: 64256 64256 542
Width: 711
VWidth: 1155
Flags: HMW
LayerCount: 2
Fore
SplineSet
891 689 m 1
 795 728 l 1
 795 740 777 755 725 755 c 0
 645 755 606 687 576 560 c 1
 486 582 l 1
 516 713 593 800 723 800 c 0
 824 800 891 746 891 689 c 1
486 582 m 1
 576 560 l 1
 434 -100 l 5
 344 -100 l 5
 486 582 l 1
774 671 m 0
 774 701 795 708 795 728 c 1
 891 689 l 1
 891 646 867 623 832 623 c 0
 797 623 774 643 774 671 c 0
146 552 m 1
 236 530 l 1
 95 -150 l 1
 5 -150 l 1
 146 552 l 1
551 659 m 1
 455 698 l 1
 455 710 437 725 385 725 c 0
 305 725 266 657 236 530 c 1
 146 552 l 1
 176 683 253 770 383 770 c 0
 484 770 551 716 551 659 c 1
434 641 m 0
 434 671 455 678 455 698 c 1
 551 659 l 1
 551 616 527 593 492 593 c 0
 457 593 434 613 434 641 c 0
50 520 m 1
 702 520 l 1
 702 465 l 1
 50 465 l 1
 50 520 l 1
EndSplineSet
LCarets2: 1 0
Ligature2: "Not your mama's contextual ligatures" f f
EndChar

StartChar: uniFB01
Encoding: 64257 64257 543
Width: 646
VWidth: 1155
Flags: HMW
LayerCount: 2
Fore
SplineSet
586 113 m 1
 553 23 510 -10 458 -10 c 0
 410.6953125 -10 377.005859375 13.5537109375 377.005859375 63.38671875 c 0
 377.005859375 68.5849609375 377.690429688 79.1083984375 379 85 c 2
 478 520 l 1
 570 520 l 1
 468 71 l 2
 467.470703125 68.7021484375 467.225585938 64.548828125 467.225585938 62.5361328125 c 0
 467.225585938 51.1416015625 473.619140625 46 487 46 c 0
 501 46 533 68 552 124 c 1
 586 113 l 1
390 520 m 1
 480 520 l 1
 480 465 l 1
 390 465 l 1
 390 520 l 1
150 572 m 1
 240 550 l 1
 95 -150 l 5
 5 -150 l 5
 150 572 l 1
585 679 m 1
 489 718 l 1
 489 730 461 745 409 745 c 0
 329 745 270 677 240 550 c 1
 150 572 l 1
 180 703 277 790 407 790 c 0
 508 790 585 736 585 679 c 1
468 661 m 0
 468 691 489 698 489 718 c 1
 585 679 l 1
 585 636 561 613 526 613 c 0
 491 613 468 633 468 661 c 0
50 520 m 1
 390 520 l 1
 390 465 l 1
 50 465 l 1
 50 520 l 1
EndSplineSet
LCarets2: 1 0
Ligature2: "Not your mama's contextual ligatures" f i
EndChar

StartChar: uniFB02
Encoding: 64258 64258 544
Width: 682
VWidth: 1155
Flags: HMW
LayerCount: 2
Fore
SplineSet
616 113 m 1
 583 23 540 -10 488 -10 c 0
 440.6953125 -10 407.005859375 13.5537109375 407.005859375 63.38671875 c 0
 407.005859375 68.5849609375 407.690429688 79.1083984375 409 85 c 2
 546 730 l 1
 652 800 l 1
 498 71 l 2
 497.470703125 68.7021484375 497.225585938 64.548828125 497.225585938 62.5361328125 c 0
 497.225585938 51.1416015625 503.619140625 46 517 46 c 0
 531 46 563 68 582 124 c 1
 616 113 l 1
150 572 m 1
 240 550 l 1
 95 -150 l 5
 5 -150 l 5
 150 572 l 1
585 679 m 1
 489 718 l 1
 489 730 461 745 409 745 c 0
 329 745 270 677 240 550 c 1
 150 572 l 1
 180 703 277 790 407 790 c 0
 508 790 585 736 585 679 c 1
468 661 m 0
 468 691 489 698 489 718 c 1
 585 679 l 1
 585 636 561 613 526 613 c 0
 491 613 468 633 468 661 c 0
50 520 m 1
 370 520 l 1
 370 465 l 1
 50 465 l 1
 50 520 l 1
EndSplineSet
LCarets2: 1 0
Ligature2: "Not your mama's contextual ligatures" f l
EndChar

StartChar: uniFB03
Encoding: 64259 64259 545
Width: 996
VWidth: 1155
Flags: HMW
LayerCount: 2
Fore
SplineSet
936 113 m 1
 903 23 860 -10 808 -10 c 0
 760.6953125 -10 727.005859375 13.5537109375 727.005859375 63.38671875 c 0
 727.005859375 68.5849609375 727.690429688 79.1083984375 729 85 c 2
 828 520 l 1
 920 520 l 1
 818 71 l 2
 817.470703125 68.7021484375 817.225585938 64.548828125 817.225585938 62.5361328125 c 0
 817.225585938 51.1416015625 823.619140625 46 837 46 c 0
 851 46 883 68 902 124 c 1
 936 113 l 1
921 689 m 1
 825 728 l 1
 825 740 797 755 745 755 c 0
 665 755 606 687 576 560 c 1
 486 582 l 1
 516 713 613 800 743 800 c 0
 844 800 921 746 921 689 c 1
486 582 m 1
 576 560 l 1
 434 -100 l 5
 344 -100 l 5
 486 582 l 1
804 671 m 0
 804 701 825 708 825 728 c 1
 921 689 l 1
 921 646 897 623 862 623 c 0
 827 623 804 643 804 671 c 0
146 552 m 1
 236 530 l 1
 95 -150 l 1
 5 -150 l 1
 146 552 l 1
551 659 m 1
 455 698 l 1
 455 710 437 725 385 725 c 0
 305 725 266 657 236 530 c 1
 146 552 l 1
 176 683 253 770 383 770 c 0
 484 770 551 716 551 659 c 1
434 641 m 0
 434 671 455 678 455 698 c 1
 551 659 l 1
 551 616 527 593 492 593 c 0
 457 593 434 613 434 641 c 0
50 520 m 1
 828 520 l 1
 828 465 l 1
 50 465 l 1
 50 520 l 1
EndSplineSet
LCarets2: 2 0 0
Ligature2: "Not your mama's contextual ligatures" f f i
EndChar

StartChar: uniFB04
Encoding: 64260 64260 546
Width: 995
VWidth: 1155
Flags: HMW
LayerCount: 2
Fore
SplineSet
952 113 m 1
 919 23 876 -10 824 -10 c 0
 776.6953125 -10 743.005859375 13.5537109375 743.005859375 63.38671875 c 0
 743.005859375 68.5849609375 743.690429688 79.1083984375 745 85 c 2
 882 730 l 1
 988 800 l 1
 834 71 l 2
 833.470703125 68.7021484375 833.225585938 64.548828125 833.225585938 62.5361328125 c 0
 833.225585938 51.1416015625 839.619140625 46 853 46 c 0
 867 46 899 68 918 124 c 1
 952 113 l 1
921 689 m 1
 825 728 l 1
 825 740 797 755 745 755 c 0
 665 755 606 687 576 560 c 1
 486 582 l 1
 516 713 613 800 743 800 c 0
 844 800 921 746 921 689 c 1
486 582 m 1
 576 560 l 1
 434 -100 l 5
 344 -100 l 5
 486 582 l 1
804 671 m 0
 804 701 825 708 825 728 c 1
 921 689 l 1
 921 646 897 623 862 623 c 0
 827 623 804 643 804 671 c 0
146 552 m 1
 236 530 l 1
 95 -150 l 1
 5 -150 l 1
 146 552 l 1
551 659 m 1
 455 698 l 1
 455 710 437 725 385 725 c 0
 305 725 266 657 236 530 c 1
 146 552 l 1
 176 683 253 770 383 770 c 0
 484 770 551 716 551 659 c 1
434 641 m 0
 434 671 455 678 455 698 c 1
 551 659 l 1
 551 616 527 593 492 593 c 0
 457 593 434 613 434 641 c 0
50 520 m 1
 706 520 l 1
 706 465 l 1
 50 465 l 1
 50 520 l 1
EndSplineSet
LCarets2: 2 0 0
Ligature2: "Not your mama's contextual ligatures" f f l
EndChar

StartChar: uniFFFD
Encoding: 65533 65533 547
Width: 777
Flags: HW
LayerCount: 2
Back
SplineSet
155 55 m 1
 290 55 l 1
 290 0 l 1
 155 0 l 1
 155 55 l 1
110 750 m 1
 225 750 l 1
 225 695 l 1
 110 695 l 1
 110 750 l 1
-40 55 m 1
 75 55 l 1
 75 0 l 1
 -40 0 l 1
 -40 55 l 1
427 405 m 5
 503 405 617 471 617 580 c 4
 617 649 583 695 497 695 c 5
 497 750 l 5
 668 750 717 670 717 580 c 4
 717 460 618 364 427 364 c 5
 427 405 l 5
297 750 m 1
 497 750 l 1
 497 695 l 1
 297 695 l 1
 297 750 l 1
217 405 m 1
 447 405 l 1
 447 345 l 1
 217 345 l 1
 217 405 l 1
222 750 m 1
 317 750 l 1
 157 0 l 1
 62 0 l 1
 222 750 l 1
712 84 m 1
 697 29 653 -10 587 -10 c 0
 503 -10 482 32 482 87 c 0
 482 137 500 198 500 248 c 0
 500 303 480 345 397 345 c 1
 417 381 l 1
 569 381 603 327 603 256 c 0
 603 200 582 136 582 99 c 0
 582 77 596 59 619 59 c 0
 640 59 667 66 682 101 c 1
 712 84 l 1
EndSplineSet
Fore
SplineSet
427 405 m 1
 503 405 617 471 617 580 c 0
 617 649 583 695 497 695 c 1
 497 750 l 1
 668 750 717 670 717 580 c 0
 717 460 618 364 427 364 c 1
 427 405 l 1
297 750 m 1
 497 750 l 1
 497 695 l 1
 297 695 l 1
 297 750 l 1
217 405 m 1
 447 405 l 1
 457 345 l 5
 217 345 l 1
 217 405 l 1
-40 55 m 1
 90 55 l 1
 70 0 l 1
 -40 0 l 1
 -40 55 l 1
110 750 m 1
 222 750 l 1
 222 695 l 1
 110 695 l 1
 110 750 l 1
222 750 m 1
 317 750 l 1
 157 0 l 1
 62 0 l 1
 222 750 l 1
145 55 m 1
 290 55 l 1
 290 0 l 1
 145 0 l 1
 145 55 l 1
687 0 m 25
 582 0 l 2
 518 0 494 38 494 88 c 0
 494 139 519 203 519 255 c 0
 519 306 502 345 437 345 c 1
 457 381 l 1
 592 381 625 323 625 257 c 0
 625 197 598 129 598 89 c 0
 598 68 605 55 628 55 c 2
 687 55 l 1
 687 0 l 25
EndSplineSet
EndChar

StartChar: uniFFF0
Encoding: 65520 65520 548
Width: 365
VWidth: 1155
Flags: HW
LayerCount: 2
Back
SplineSet
280 107 m 5
 251 43 195 -12 114 -12 c 4
 54 -12 30 20 30 60 c 4
 30 68 31 77 33 86 c 6
 157 611 l 5
 193 611 235 638 235 638 c 5
 253 638 l 5
 133 107 l 6
 129 91 126 78 126 69 c 4
 126 57 132 50 147 50 c 4
 178 50 214 77 242 121 c 5
 280 107 l 5
EndSplineSet
Fore
SplineSet
35.001953125 520 m 1
 340.001953125 520 l 1
 340.001953125 465 l 1
 35.001953125 465 l 1
 35.001953125 520 l 1
280 107 m 1
 251 43 195 -12 114 -12 c 0
 54 -12 30 20 30 60 c 0
 30 68 31 77 33 86 c 2
 149 572 l 1
 205 582 218 608 218 608 c 1
 246 608 l 1
 133 107 l 2
 129 91 126 78 126 69 c 0
 126 57 132 50 147 50 c 0
 178 50 214 77 242 121 c 1
 280 107 l 1
EndSplineSet
EndChar
